SplineFontDB: 3.0
FontName: Boon-Black
FullName: Boon Black
FamilyName: Boon
Weight: Black
Copyright: Copyright (C) 2013 Sungsit Sawaiwan <http://sungsit.com/> \n\nThis font is free software: you can redistribute it and/or modify it under the terms of the GNU General Public License as published by the Free Software Foundation, either version 3 of the License, or (at your option) any later version. \n\nThis font is distributed in the hope that it will be useful, but WITHOUT ANY WARRANTY; without even the implied warranty of MERCHANTABILITY or FITNESS FOR A PARTICULAR PURPOSE. See the GNU General Public License for more details. \n\nYou should have received a copy of the GNU General Public License along with this program. If not, see <http://www.gnu.org/licenses/>. \n\nAs a special exception, if you create a document which uses this font, and embed this font or unaltered portions of this font into the document, this font does not by itself cause the resulting document to be covered by the GNU General Public License. This exception does not however invalidate any other reasons why the document might be covered by the GNU General Public License. If you modify this font, you may extend this exception to your version of the font, but you are not obligated to do so. If you do not wish to do so, delete this exception statement from your version.
UComments: "Created with FontForge 2.0 <http://fontforge.org/>" 
Version: 0.1
ItalicAngle: 0
UnderlinePosition: -60
UnderlineWidth: 20
Ascent: 900
Descent: 300
woffMajor: 0
woffMinor: 1
LayerCount: 2
Layer: 0 0 "Back"  1
Layer: 1 0 "Fore"  0
FSType: 8
OS2Version: 0
OS2_WeightWidthSlopeOnly: 0
OS2_UseTypoMetrics: 1
CreationTime: 1368461035
ModificationTime: 1368797292
PfmFamily: 33
TTFWeight: 900
TTFWidth: 5
LineGap: 108
VLineGap: 0
Panose: 2 0 10 3 0 0 0 0 0 0
OS2TypoAscent: 0
OS2TypoAOffset: 1
OS2TypoDescent: 0
OS2TypoDOffset: 1
OS2TypoLinegap: 108
OS2WinAscent: 0
OS2WinAOffset: 1
OS2WinDescent: 0
OS2WinDOffset: 1
HheadAscent: 0

StartChar: Boon
Encoding: 63743 63743 0
Width: 1450
VWidth: 0
Flags: W
HStem: -394 181<560.402 640.588> -320 100<1085.38 1199.88> -123 75<560.516 639.484> -113 65<949.488 1030.51> -12 120<379.5 527.377 1083.43 1179.58> 498 120<722.957 849.652> 512 100<151.832 248.168>
VStem: 40 100<403.092 500.168> 170 190<127.105 301.374> 260 100<403.108 499.443> 480 75<-208.066 -128.515> 530 190<118.485 492.666> 560 160<-394 -269.086> 645 75<-208.588 -129.619> 880 190<121.59 464.65> 880 65<-197.852 -117.488> 1035 65<-198.71 -117.488> 1180 190<113.552 590>
LayerCount: 2
Fore
SplineSet
780 618 m 1x0d9040
 976 618 1069 503 1070 340 c 1
 1070 200 l 2
 1070 137 1091 108 1125 108 c 0
 1159 108 1180 130 1180 130 c 1
 1180 590 l 1
 1370 590 l 1
 1370 60 l 1
 1370 60 1277 -12 1125 -12 c 0
 973 -12 880 56 880 200 c 2
 880 340 l 2
 880 423 873 498 780 498 c 0
 734 498 720 475 720 475 c 1x0d9240
 720 60 l 1
 720 60 648 -12 435 -12 c 0
 222 -12 170 61 170 205 c 2
 170 295 l 1x0d8440
 96 309 40 374 40 452 c 0
 40 540 112 612 200 612 c 0
 288 612 360 540 360 452 c 2x0b4040
 360 205 l 2
 360 142 386 108 440 108 c 0
 494 108 530 130 530 130 c 1
 530 560 l 1
 530 560 629 616 780 618 c 1x0d9040
200 512 m 0x0b4040
 167 512 140 485 140 452 c 0
 140 419 167 392 200 392 c 0
 233 392 260 419 260 452 c 0
 260 485 233 512 200 512 c 0x0b4040
600 -48 m 0xa92840
 666 -48 720 -102 720 -168 c 2xa92440
 720 -394 l 1
 560 -394 l 1
 560 -281 l 1
 513 -265 480 -220 480 -168 c 0
 480 -102 534 -48 600 -48 c 0xa92840
990 -48 m 0x5901c0
 1051 -48 1100 -97 1100 -158 c 0
 1100 -178 1095 -197 1085 -213 c 1x9901c0
 1097 -217 1110 -220 1125 -220 c 0
 1202 -219 1242 -157 1260 -98 c 1
 1410 -98 l 1
 1361 -219 1269 -320 1125 -320 c 0
 1023 -320 880 -270 880 -158 c 0
 880 -97 929 -48 990 -48 c 0x5901c0
990 -113 m 0
 965 -113 945 -133 945 -158 c 0
 945 -183 965 -203 990 -203 c 0
 1015 -203 1035 -183 1035 -158 c 0
 1035 -133 1015 -113 990 -113 c 0
600 -123 m 0xa92440
 575 -123 555 -143 555 -168 c 0
 555 -193 575 -213 600 -213 c 0
 625 -213 645 -193 645 -168 c 0
 645 -143 625 -123 600 -123 c 0xa92440
EndSplineSet
Validated: 1
EndChar

StartChar: uni0E01
Encoding: 3585 3585 1
Width: 690
VWidth: 0
Flags: W
HStem: 0 21G<70 260 420 610> 492 120<234.213 389.652>
VStem: 70 190<0 339.278> 420 190<0 458.65>
LayerCount: 2
Fore
SplineSet
260 0 m 1
 70 0 l 1
 70 284 l 2
 70 312 102 355 135 374 c 1
 30 423 l 1
 107 544 190 610 320 612 c 1
 516 612 609 497 610 334 c 1
 610 0 l 1
 420 0 l 1
 420 334 l 2
 420 417 413 492 320 492 c 0
 248 492 215 452 195 431 c 1
 300 379 l 1
 300 379 260 355 260 324 c 2
 260 0 l 1
EndSplineSet
Validated: 1
EndChar

StartChar: uni0E5B
Encoding: 3675 3675 2
Width: 1340
VWidth: 0
Flags: W
HStem: -12 100<268.692 432.745> 149 111<259.013 361.598> 240 100<912.093 1160> 340 50<254 326> 512 100<237.478 364.975>
VStem: 60 110<196.827 427.233> 200 50<264.515 336> 330 50<263.151 336> 400 110<252.64 474.851> 590 110<505.4 560> 690 100<90 134.1>
LayerCount: 2
Back
SplineSet
300 612 m 4xbfe0
 437 612 510 504 510 380 c 4
 510 237 460 149 335 149 c 4
 243 149 200 237 200 300 c 4
 200 350 240 390 290 390 c 4
 340 390 380 350 380 300 c 4
 380 275 371 253 355 237 c 5
 396 252 400 335 400 380 c 4
 400 460 363 512 300 512 c 4
 233 512 170 431 170 300 c 4
 170 190 236 88 320 88 c 4
 520 88 560 330 560 570 c 5
 650 570 l 5
 685 350 l 5
 725 540 l 5
 790 540 l 5xdfd0
 830 345 l 5
 895 520 l 5
 960 355 l 5
 1000 475 l 5
 1000 475 1064 310 1120 310 c 6
 1360 310 l 5
 1360 220 l 5
 1120 220 l 6
 1067 220 1040 222 1020 255 c 5
 960 60 l 5
 895 230 l 5
 830 45 l 5
 770 220 l 5
 740 25 l 5
 670 25 l 5
 635 227 l 5
 598 104 521 -12 320 -12 c 4
 145 -12 60 153 60 300 c 4
 60 466 160 612 300 612 c 4xbfe0
290 340 m 4
 268 340 250 322 250 300 c 4
 250 278 268 260 290 260 c 4
 312 260 330 278 330 300 c 4
 330 322 312 340 290 340 c 4
EndSplineSet
Fore
SplineSet
300 612 m 0xafa0
 437 612 510 504 510 380 c 0
 510 237 460 149 335 149 c 0
 243 149 200 237 200 300 c 0
 200 350 240 390 290 390 c 0
 340 390 380 350 380 300 c 0
 380 275 371 253 355 237 c 1
 396 252 400 335 400 380 c 0
 400 460 363 512 300 512 c 0
 233 512 170 431 170 300 c 0
 170 190 256 88 340 88 c 0
 529 88 590 320 590 560 c 1
 700 560 l 1xdfc0
 740 300 l 1
 780 500 l 1
 860 500 l 1
 879 417 900 340 960 340 c 2
 1160 340 l 1
 1160 240 l 1
 960 240 l 2
 842 240 830 300 830 300 c 1
 790 90 l 1
 690 90 l 1
 650 300 l 1
 635 181 585 -12 340 -12 c 0
 165 -12 60 153 60 300 c 0
 60 466 160 612 300 612 c 0xafa0
290 340 m 0
 268 340 250 322 250 300 c 0
 250 278 268 260 290 260 c 0
 312 260 330 278 330 300 c 0
 330 322 312 340 290 340 c 0
EndSplineSet
EndChar

StartChar: uni0E10.descless
Encoding: 63232 63232 3
Width: 610
VWidth: 0
Flags: W
HStem: 94 65<149.488 230.15> 249 65<149.488 230.462> 492 120<236.738 425.272>
VStem: 80 65<163.488 244.512> 350 180<140.038 321.017>
LayerCount: 2
Fore
SplineSet
310 612 m 0
 398 612 461 571 490 540 c 1
 518 580 580 606 580 606 c 1
 580 480 l 1
 580 480 544 478 490 420 c 1
 434 476 364 492 310 492 c 0
 256 492 210 456 210 424 c 1
 385 404 530 386 530 284 c 2
 530 21 l 1
 530 21 473 -12 340 -12 c 1
 340 -12 315 70 274 132 c 1
 253 109 223 94 190 94 c 0
 129 94 80 143 80 204 c 0
 80 265 129 314 190 314 c 0
 304 314 367 140 367 140 c 1
 367 140 350 192 350 230 c 2
 350 291 l 2
 350 356 105 354 20 364 c 1
 20 534 190 612 310 612 c 0
190 249 m 0
 165 249 145 229 145 204 c 0
 145 179 165 159 190 159 c 0
 215 159 235 179 235 204 c 0
 235 229 215 249 190 249 c 0
EndSplineSet
Validated: 1
EndChar

StartChar: uni0E0D.descless
Encoding: 63247 63247 4
Width: 990
VWidth: 0
Flags: W
HStem: -12 120<621.893 726.97> -12 85<160.339 239.661> 492 120<234.213 389.652>
VStem: 70 190<216.095 339.278> 70 85<79.2666 158.588> 245 85<78.3395 158.487> 420 190<117.07 458.65> 720 190<125.015 590>
LayerCount: 2
Back
SplineSet
320 612 m 5x73
 516 612 609 497 610 334 c 5
 610 200 l 6
 610 124 636 108 670 108 c 4
 713 108 730 125 730 125 c 5
 730 125 720 146 720 196 c 6
 720 590 l 5
 910 590 l 5
 910 80 l 5
 910 80 822 -12 670 -12 c 4
 518 -12 420 29 420 200 c 6
 420 334 l 6
 420 417 413 492 320 492 c 4
 248 492 215 452 195 431 c 5
 300 379 l 5
 300 379 260 355 260 324 c 6
 260 233 l 5xb3
 302 212 330 168 330 118 c 4
 330 46 272 -12 200 -12 c 4
 128 -12 70 46 70 118 c 6x6f
 70 284 l 6
 70 312 102 355 135 374 c 5
 30 423 l 5
 107 544 190 610 320 612 c 5x73
200 173 m 4
 170 173 145 148 145 118 c 4
 145 88 170 63 200 63 c 4
 230 63 255 88 255 118 c 4x6f
 255 148 230 173 200 173 c 4
EndSplineSet
Fore
SplineSet
320 612 m 1x73
 516 612 609 497 610 334 c 1
 610 200 l 2
 610 124 636 108 670 108 c 0
 713 108 730 125 730 125 c 1
 730 125 720 146 720 196 c 2
 720 590 l 1
 910 590 l 1
 910 80 l 1
 910 80 822 -12 670 -12 c 0
 518 -12 420 29 420 200 c 2
 420 334 l 2
 420 417 413 492 320 492 c 0
 248 492 215 452 195 431 c 1
 300 379 l 1
 300 379 260 355 260 324 c 2
 260 233 l 1xb3
 302 212 330 168 330 118 c 0
 330 46 272 -12 200 -12 c 0
 128 -12 70 46 70 118 c 2x6f
 70 284 l 2
 70 312 102 355 135 374 c 1
 30 423 l 1
 107 544 190 610 320 612 c 1x73
200 163 m 0
 175 163 155 143 155 118 c 0
 155 93 175 73 200 73 c 0
 225 73 245 93 245 118 c 0x6f
 245 143 225 163 200 163 c 0
EndSplineSet
Validated: 1
EndChar

StartChar: uni0E1A
Encoding: 3610 3610 5
Width: 770
VWidth: 0
Flags: W
HStem: -12 120<353.188 517.449> 512 100<121.832 218.168>
VStem: 10 100<403.092 500.168> 140 190<131.501 301.374> 230 100<403.108 499.443> 500 190<134.024 590>
LayerCount: 2
Fore
SplineSet
170 612 m 4xf4
 258 612 330 540 330 452 c 6xec
 330 205 l 6
 330 142 361 108 415 108 c 4
 469 108 520 134 520 134 c 5
 520 134 500 167 500 220 c 6
 500 590 l 5
 690 590 l 5
 690 80 l 5
 690 80 623 -12 410 -12 c 4
 197 -12 140 61 140 205 c 6
 140 295 l 5
 66 309 10 374 10 452 c 4
 10 540 82 612 170 612 c 4xf4
170 512 m 4
 137 512 110 485 110 452 c 4
 110 419 137 392 170 392 c 4
 203 392 230 419 230 452 c 4
 230 485 203 512 170 512 c 4
EndSplineSet
Validated: 1
EndChar

StartChar: uni0E38
Encoding: 3640 3640 6
Width: 0
VWidth: 0
Flags: W
HStem: -570 170<-239.598 -159.412> -310 75<-239.485 -160.515>
VStem: -320 75<-395.066 -315.516> -240 160<-570 -456.086> -155 75<-395.588 -316.619>
LayerCount: 2
Back
SplineSet
-200 -54 m 4xf0
 -134 -54 -80 -108 -80 -174 c 2xe8
 -80 -400 l 1
 -240 -400 l 1
 -240 -287 l 1
 -287 -271 -320 -226 -320 -174 c 0
 -320 -108 -266 -54 -200 -54 c 4xf0
-200 -129 m 0
 -225 -129 -245 -149 -245 -174 c 0
 -245 -199 -225 -219 -200 -219 c 0
 -175 -219 -155 -199 -155 -174 c 0
 -155 -149 -175 -129 -200 -129 c 0
EndSplineSet
Fore
SplineSet
-200 -235 m 0xf0
 -134 -235 -80 -289 -80 -355 c 2xe8
 -80 -570 l 1
 -240 -570 l 1
 -240 -468 l 1
 -287 -452 -320 -407 -320 -355 c 0
 -320 -289 -266 -235 -200 -235 c 0xf0
-200 -310 m 0
 -225 -310 -245 -330 -245 -355 c 0
 -245 -380 -225 -400 -200 -400 c 0
 -175 -400 -155 -380 -155 -355 c 0
 -155 -330 -175 -310 -200 -310 c 0
EndSplineSet
Validated: 1
Position2: "Lower Vowel" dx=0 dy=180 dh=0 dv=0
EndChar

StartChar: uni0E40
Encoding: 3648 3648 8
Width: 360
VWidth: 0
Flags: W
HStem: -12 85<160.339 239.661>
VStem: 70 190<216.095 590> 70 85<79.2666 158.588> 245 85<78.3395 158.487>
LayerCount: 2
Back
SplineSet
70 590 m 5xc0
 260 590 l 5
 260 233 l 5xc0
 302 212 330 168 330 118 c 4
 330 46 272 -12 200 -12 c 4
 128 -12 70 46 70 118 c 6xb0
 70 590 l 5xc0
200 173 m 4
 170 173 145 148 145 118 c 4
 145 88 170 63 200 63 c 4
 230 63 255 88 255 118 c 4xb0
 255 148 230 173 200 173 c 4
EndSplineSet
Fore
SplineSet
70 590 m 1xc0
 260 590 l 1
 260 233 l 1xc0
 302 212 330 168 330 118 c 0
 330 46 272 -12 200 -12 c 0
 128 -12 70 46 70 118 c 2xb0
 70 590 l 1xc0
200 163 m 0
 175 163 155 143 155 118 c 0
 155 93 175 73 200 73 c 0
 225 73 245 93 245 118 c 0xb0
 245 143 225 163 200 163 c 0
EndSplineSet
Validated: 1
EndChar

StartChar: uni0E3A
Encoding: 3642 3642 10
Width: 0
VWidth: 0
Flags: W
HStem: -482 200<-247.147 -112.853>
VStem: -280 200<-449.147 -314.853>
LayerCount: 2
Back
SplineSet
-80 -154 m 0
 -80 -209 -125 -254 -180 -254 c 0
 -235 -254 -280 -209 -280 -154 c 0
 -280 -99 -235 -54 -180 -54 c 4
 -125 -54 -80 -99 -80 -154 c 0
EndSplineSet
Fore
SplineSet
-80 -382 m 0
 -80 -437 -125 -482 -180 -482 c 0
 -235 -482 -280 -437 -280 -382 c 0
 -280 -327 -235 -282 -180 -282 c 0
 -125 -282 -80 -327 -80 -382 c 0
EndSplineSet
Validated: 1
Position2: "Lower Vowel" dx=0 dy=220 dh=0 dv=0
EndChar

StartChar: uni0E34
Encoding: 3636 3636 11
Width: 0
VWidth: 0
Flags: W
HStem: 690 60<-535 -295> 812 100<-506.028 -338.445>
LayerCount: 2
Back
SplineSet
-630 690 m 5
 -630 807 -548 912 -385 912 c 5
 -245 907 -149 811 -100 690 c 5
 -630 690 l 5
-385 812 m 4
 -436 812 -468 782 -485 750 c 5
 -245 750 l 5
 -283 788 -319 812 -385 812 c 4
EndSplineSet
Fore
SplineSet
-680 690 m 1
 -680 807 -598 912 -435 912 c 1
 -295 907 -199 811 -150 690 c 1
 -680 690 l 1
-435 812 m 0
 -486 812 -518 782 -535 750 c 1
 -295 750 l 1
 -333 788 -369 812 -435 812 c 0
EndSplineSet
Validated: 1
Position2: "Left Upper Vowel" dx=-150 dy=0 dh=0 dv=0
Position2: "Normal Upper Vowel" dx=50 dy=0 dh=0 dv=0
EndChar

StartChar: uni0E1B
Encoding: 3611 3611 12
Width: 770
VWidth: 0
Flags: W
HStem: -12 120<353.188 517.449> 512 100<121.832 218.168>
VStem: 10 100<403.092 500.168> 140 190<131.501 301.374> 230 100<403.108 499.443> 500 190<134.024 860>
LayerCount: 2
Fore
SplineSet
170 612 m 4xf4
 258 612 330 540 330 452 c 6xec
 330 205 l 6
 330 142 361 108 415 108 c 4
 469 108 520 134 520 134 c 5
 520 134 500 167 500 220 c 6
 500 860 l 5
 690 860 l 5
 690 80 l 5
 690 80 623 -12 410 -12 c 4
 197 -12 140 61 140 205 c 6
 140 295 l 5
 66 309 10 374 10 452 c 4
 10 540 82 612 170 612 c 4xf4
170 512 m 4
 137 512 110 485 110 452 c 4
 110 419 137 392 170 392 c 4
 203 392 230 419 230 452 c 4
 230 485 203 512 170 512 c 4
EndSplineSet
Validated: 1
EndChar

StartChar: uni0E35
Encoding: 3637 3637 13
Width: 0
VWidth: 0
Flags: W
HStem: 690 60<-535 -295> 812 100<-506.028 -338.599>
LayerCount: 2
Back
SplineSet
-260 950 m 5
 -100 950 l 5
 -100 690 l 5
 -100 690 -453 690 -630 690 c 5
 -630 807 -548 912 -385 912 c 5
 -299 909 -230 872 -178 816 c 5
 -260 950 l 5
-385 812 m 4
 -436 812 -468 782 -485 750 c 5
 -245 750 l 5
 -283 788 -319 812 -385 812 c 4
EndSplineSet
Fore
SplineSet
-330 950 m 1
 -150 950 l 5
 -150 690 l 1
 -150 690 -503 690 -680 690 c 1
 -680 807 -598 912 -435 912 c 1
 -349 909 -280 872 -228 816 c 1
 -330 950 l 1
-435 812 m 0
 -486 812 -518 782 -535 750 c 1
 -295 750 l 1
 -333 788 -369 812 -435 812 c 0
EndSplineSet
Validated: 1
Position2: "Left Upper Vowel" dx=-150 dy=0 dh=0 dv=0
Position2: "Normal Upper Vowel" dx=50 dy=0 dh=0 dv=0
EndChar

StartChar: uni0E48
Encoding: 3656 3656 14
Width: 0
VWidth: 0
Flags: W
HStem: 1000 250<-320 -170>
VStem: -320 150<1000 1250>
LayerCount: 2
Back
SplineSet
-250 940 m 5
 -100 940 l 5
 -100 690 l 5
 -250 690 l 5
 -250 940 l 5
EndSplineSet
Fore
SplineSet
-320 1250 m 5
 -170 1250 l 5
 -170 1000 l 1
 -320 1000 l 1
 -320 1250 l 5
EndSplineSet
Validated: 1
Position2: "Thai Tone and Asc Vowel Fix" dx=20 dy=-310 dh=0 dv=0
Position2: "Left-Low Tone" dx=-200 dy=-310 dh=0 dv=0
Position2: "Left-High Tone" dx=-150 dy=0 dh=0 dv=0
Position2: "High Tone" dx=70 dy=0 dh=0 dv=0
Position2: "Low Tone" dx=70 dy=-310 dh=0 dv=0
EndChar

StartChar: uni0E31
Encoding: 3633 3633 15
Width: 0
VWidth: 0
Flags: W
HStem: 690 100<-354.625 -241.515> 897 65<-490.512 -409.488>
VStem: -560 65<812.148 892.512> -405 65<811.29 892.512> -170 150<864.281 942>
LayerCount: 2
Back
SplineSet
-350 962 m 4
 -289 962 -240 913 -240 852 c 4
 -240 832 -245 813 -255 797 c 5
 -243 793 -230 790 -215 790 c 4
 -138 791 -83 857 -80 922 c 5
 80 922 l 5
 77 782 -71 690 -215 690 c 4
 -317 690 -460 740 -460 852 c 4
 -460 913 -411 962 -350 962 c 4
-350 897 m 4
 -375 897 -395 877 -395 852 c 4
 -395 827 -375 807 -350 807 c 4
 -325 807 -305 827 -305 852 c 4
 -305 877 -325 897 -350 897 c 4
EndSplineSet
Fore
SplineSet
-450 962 m 0
 -389 962 -340 913 -340 852 c 0
 -340 832 -345 813 -355 797 c 1
 -343 793 -330 790 -315 790 c 0
 -238 791 -173 867 -170 942 c 1
 -20 942 l 1
 -23 792 -171 690 -315 690 c 0
 -417 690 -560 740 -560 852 c 0
 -560 913 -511 962 -450 962 c 0
-450 897 m 0
 -475 897 -495 877 -495 852 c 0
 -495 827 -475 807 -450 807 c 0
 -425 807 -405 827 -405 852 c 0
 -405 877 -425 897 -450 897 c 0
EndSplineSet
Validated: 1
Position2: "Left Upper Vowel" dx=-100 dy=0 dh=0 dv=0
Position2: "Normal Upper Vowel" dx=100 dy=0 dh=0 dv=0
EndChar

StartChar: uni0E4B
Encoding: 3659 3659 16
Width: 0
VWidth: 0
Flags: W
HStem: 1000 250<-320 -170> 1085 80<-405 -320 -170 -85>
VStem: -320 150<1000 1085 1165 1250>
LayerCount: 2
Back
SplineSet
-250 940 m 1xa0
 -100 940 l 1xa0
 -100 855 l 1
 -15 855 l 1
 -15 775 l 1
 -100 775 l 1x60
 -100 690 l 5
 -250 690 l 5xa0
 -250 775 l 1
 -335 775 l 1
 -335 855 l 1
 -250 855 l 1x60
 -250 940 l 1xa0
EndSplineSet
Fore
SplineSet
-320 1250 m 5xa0
 -170 1250 l 5xa0
 -170 1165 l 5
 -85 1165 l 5
 -85 1085 l 5
 -170 1085 l 5x60
 -170 1000 l 5
 -320 1000 l 5xa0
 -320 1085 l 5
 -405 1085 l 5
 -405 1165 l 5
 -320 1165 l 5x60
 -320 1250 l 5xa0
EndSplineSet
Validated: 1
Position2: "Thai Tone and Asc Vowel Fix" dx=-80 dy=-310 dh=0 dv=0
Position2: "Left-Low Tone" dx=-250 dy=-310 dh=0 dv=0
Position2: "Left-High Tone" dx=-150 dy=0 dh=0 dv=0
Position2: "High Tone" dx=70 dy=0 dh=0 dv=0
Position2: "Low Tone" dx=70 dy=-310 dh=0 dv=0
EndChar

StartChar: uni0E37
Encoding: 3639 3639 17
Width: 0
VWidth: 0
Flags: W
HStem: 690 60<-535 -298> 812 100<-506.028 -369.381>
VStem: -250 100<840 950>
LayerCount: 2
Back
SplineSet
-630 690 m 5
 -630 807 -548 912 -385 912 c 4
 -361 911 -339 908 -318 902 c 5
 -375 950 l 5
 -240 950 l 5
 -240 870 l 5
 -200 840 l 5
 -200 950 l 5
 -100 950 l 5
 -100 690 l 5
 -630 690 l 5
-385 812 m 4
 -436 812 -468 782 -485 750 c 5
 -248 750 l 5
 -250 755 l 5
 -286 790 -322 812 -385 812 c 4
EndSplineSet
Fore
SplineSet
-680 690 m 1
 -680 807 -598 912 -435 912 c 0
 -411 911 -389 908 -368 902 c 1
 -425 950 l 1
 -290 950 l 1
 -290 870 l 1
 -250 840 l 1
 -250 950 l 1
 -150 950 l 1
 -150 690 l 1
 -680 690 l 1
-435 812 m 0
 -486 812 -518 782 -535 750 c 1
 -298 750 l 1
 -300 755 l 1
 -336 790 -372 812 -435 812 c 0
EndSplineSet
Validated: 1
Position2: "Left Upper Vowel" dx=-150 dy=0 dh=0 dv=0
Position2: "Normal Upper Vowel" dx=50 dy=0 dh=0 dv=0
EndChar

StartChar: uni0E36
Encoding: 3638 3638 18
Width: 0
VWidth: 0
Flags: W
HStem: 690 117<-279.61 -198.605> 690 60<-534 -294> 812 100<-505.59 -339.977> 897 65<-279.155 -199.084>
VStem: -680 396<690 852> -194 64<812.054 892.512>
LayerCount: 2
Back
SplineSet
-180 962 m 4x1c
 -119 962 -70 913 -70 852 c 4
 -70 812 -91 776 -123 757 c 5
 -110 736 -99 713 -90 690 c 5
 -620 690 l 5
 -620 807 -538 912 -374 912 c 5x6c
 -341 911 -310 904 -281 893 c 5
 -265 934 -226 962 -180 962 c 4x1c
-180 897 m 4x9c
 -204 897 -224 877 -224 852 c 4
 -224 827 -204 807 -180 807 c 4
 -155 807 -134 827 -134 852 c 4
 -134 877 -155 897 -180 897 c 4x9c
-374 812 m 4x6c
 -426 812 -458 782 -474 750 c 5
 -234 750 l 5
 -272 788 -308 812 -374 812 c 4x6c
EndSplineSet
Fore
SplineSet
-240 962 m 0x1c
 -179 962 -130 913 -130 852 c 0
 -130 812 -151 776 -183 757 c 1
 -170 736 -159 713 -150 690 c 1
 -680 690 l 1
 -680 807 -598 912 -434 912 c 1x6c
 -401 911 -370 904 -341 893 c 1
 -325 934 -286 962 -240 962 c 0x1c
-240 897 m 0x9c
 -264 897 -284 877 -284 852 c 0
 -284 827 -264 807 -240 807 c 0
 -215 807 -194 827 -194 852 c 0
 -194 877 -215 897 -240 897 c 0x9c
-434 812 m 0x6c
 -486 812 -518 782 -534 750 c 1
 -294 750 l 1
 -332 788 -368 812 -434 812 c 0x6c
EndSplineSet
Validated: 1
Position2: "Left Upper Vowel" dx=-150 dy=0 dh=0 dv=0
Position2: "Normal Upper Vowel" dx=50 dy=0 dh=0 dv=0
EndChar

StartChar: uni0E03
Encoding: 3587 3587 19
Width: 690
VWidth: 0
Flags: W
HStem: -12 120<333.53 447.23> 287 65<93.3212 172.788> 442 65<93.3008 173.012>
VStem: 10 78<356.639 482.837> 130 190<121.855 227.078> 178 64<357.345 436.655> 291 100<358.744 512.547> 430 180<130.015 590>
LayerCount: 2
Back
SplineSet
290 606 m 5
 290 606 401 549 401 407 c 4
 401 298 330 245 330 170 c 4
 330 133 359 108 388 108 c 4
 434 108 450 130 450 130 c 5
 450 130 440 137 440 196 c 6
 440 590 l 5
 620 590 l 5
 620 100 l 5
 620 100 556 -12 380 -12 c 4
 232 -12 140 49 140 155 c 6
 140 175 l 6
 140 261 310 343 310 432 c 4
 310 508 283 543 283 543 c 5
 215 500 l 5
 215 500 176 540 142 540 c 4
 126 540 113 522 113 502 c 5
 124 507 141 509 152 509 c 4
 213 509 262 462 262 399 c 4
 262 336 213 289 151 289 c 4
 89 289 30 329 30 422 c 4
 30 552 95 597 137 597 c 4
 179 597 215 560 215 560 c 5
 290 606 l 5
153 444 m 4
 129 444 108 424 108 399 c 4
 108 374 129 354 153 354 c 4
 178 354 198 374 198 399 c 4
 198 424 178 444 153 444 c 4
EndSplineSet
Fore
SplineSet
125 612 m 1xf5
 195 560 l 1
 265 612 l 1
 265 612 391 552 391 410 c 0xf7
 391 301 320 245 320 170 c 0
 320 133 349 108 378 108 c 0
 424 108 450 130 450 130 c 1
 450 130 430 151 430 220 c 2
 430 590 l 1
 610 590 l 1
 610 100 l 1
 610 100 546 -12 370 -12 c 0
 222 -12 130 49 130 155 c 2
 130 175 l 2xf9
 130 241 291 317 291 448 c 0xf3
 291 524 258 546 258 546 c 1
 195 500 l 1
 130 546 l 1xf9
 130 546 101 528 93 500 c 1
 104 505 121 507 132 507 c 0
 193 507 242 460 242 397 c 0
 242 334 193 287 131 287 c 0
 69 287 10 327 10 420 c 0
 10 573 125 612 125 612 c 1xf5
133 442 m 0
 109 442 88 422 88 397 c 0
 88 372 109 352 133 352 c 0
 158 352 178 372 178 397 c 0
 178 422 158 442 133 442 c 0
EndSplineSet
Validated: 1
EndChar

StartChar: uni0E0D
Encoding: 3597 3597 20
Width: 990
VWidth: 0
Flags: W
HStem: -301 100<616.354 724.562> -94 65<480.183 561.207> -12 85<160.339 239.661> -12 120<621.893 726.97> 492 120<234.213 389.652>
VStem: 70 85<79.2666 158.588> 70 190<216.095 339.278> 245 85<78.3395 158.487> 410 66<-179.082 -98.2578> 420 190<117.07 458.65> 566 64<-179.71 -98.4878> 720 190<125.015 590> 790 160<-132.818 -49>
LayerCount: 2
Fore
SplineSet
520 -29 m 0xc8a8
 582 -29 630 -78 630 -139 c 0
 630 -159 626 -178 616 -194 c 1
 628 -198 640 -201 656 -201 c 0
 732 -200 788 -124 790 -49 c 1
 950 -49 l 1
 948 -199 800 -301 656 -301 c 0
 554 -301 410 -251 410 -139 c 0
 410 -78 460 -29 520 -29 c 0xc8a8
520 -94 m 0
 496 -94 476 -114 476 -139 c 0
 476 -164 496 -184 520 -184 c 0
 546 -184 566 -164 566 -139 c 0
 566 -114 546 -94 520 -94 c 0
EndSplineSet
Refer: 4 63247 N 1 0 0 1 0 0 2
Validated: 1
Substitution2: "Thai Descent Remove" uni0E0D.descless
EndChar

StartChar: uni0E02
Encoding: 3586 3586 21
Width: 680
VWidth: 0
Flags: W
HStem: -12 120<323.53 437.23> 304 70<103.321 182.788> 464 65<142 182.437> 545 64<143.208 249.423>
VStem: 20 78<379.808 458.571> 120 190<121.855 237.859> 188 64<379.038 458.655> 281 100<368.338 511.564> 420 180<130.015 590>
LayerCount: 2
Fore
SplineSet
190 609 m 0xfb80
 330 609 381 516 381 407 c 0xfb80
 381 298 310 245 310 170 c 0
 310 133 339 108 368 108 c 0
 414 108 440 130 440 130 c 1
 440 130 420 151 420 220 c 2
 420 590 l 1
 600 590 l 1
 600 100 l 1
 600 100 536 -12 360 -12 c 0
 212 -12 120 49 120 155 c 2
 120 175 l 2xfc80
 120 261 281 334 281 445 c 0
 281 507 232 543 190 545 c 1
 168 545 155 540 142 529 c 1
 203 529 252 482 252 419 c 0
 252 356 203 304 141 304 c 0
 79 304 20 349 20 442 c 0
 20 525 85 609 190 609 c 0xfb80
143 464 m 0
 119 464 98 444 98 419 c 0
 98 394 119 374 143 374 c 0
 168 374 188 394 188 419 c 0
 188 444 168 464 143 464 c 0
EndSplineSet
Validated: 1
EndChar

StartChar: uni0E0B
Encoding: 3595 3595 22
Width: 690
VWidth: 0
Flags: W
HStem: -12 120<333.53 447.23> 287 65<93.3212 172.788> 442 65<93.3008 173.012> 500 160<558.496 660>
VStem: 10 78<356.639 482.837> 130 190<121.855 227.078> 178 64<357.345 436.655> 291 100<358.744 481.125> 430 180<130.008 383.086>
LayerCount: 2
Fore
SplineSet
660 660 m 1xda80
 660 500 l 1
 587 500 534 469 510 440 c 1
 510 440 610 387 610 330 c 2
 610 100 l 1
 610 100 546 -12 370 -12 c 0
 222 -12 130 49 130 155 c 2
 130 175 l 2xdc80
 130 241 291 317 291 448 c 0xd980
 291 524 258 546 258 546 c 1
 195 500 l 1
 130 546 l 1
 130 546 101 528 93 500 c 1xdc80
 104 505 121 507 132 507 c 0xec80
 193 507 242 460 242 397 c 0
 242 334 193 287 131 287 c 0
 69 287 10 327 10 420 c 0
 10 573 125 612 125 612 c 1
 195 560 l 1
 265 612 l 1
 265 612 355 569 383 471 c 1
 423 553 546 660 660 660 c 1xda80
133 442 m 0xea80
 109 442 88 422 88 397 c 0
 88 372 109 352 133 352 c 0
 158 352 178 372 178 397 c 0
 178 422 158 442 133 442 c 0xea80
390 428 m 1
 391 422 391 416 391 410 c 0xc980
 391 301 320 245 320 170 c 0xcc80
 320 133 349 108 378 108 c 0
 424 108 450 130 450 130 c 1
 450 130 430 141 430 200 c 2
 430 360 l 2
 430 393 408 416 390 428 c 1
EndSplineSet
Validated: 1
EndChar

StartChar: uni0E0A
Encoding: 3594 3594 23
Width: 680
VWidth: 0
Flags: W
HStem: -12 120<323.53 437.23> 304 70<103.321 182.788> 464 65<142 182.437> 500 160<549.335 650> 545 64<143.208 247.94>
VStem: 20 78<379.808 458.571> 120 190<121.855 237.859> 188 64<379.038 458.655> 281 100<368.338 478.761> 420 180<130.008 383.086>
LayerCount: 2
Back
SplineSet
630 660 m 5xd580
 630 496 l 5
 504 496 480 436 480 436 c 5
 480 436 610 373 610 294 c 6
 610 100 l 5
 610 100 542 -12 370 -12 c 4
 222 -12 130 34 130 140 c 6
 130 170 l 6xd680
 130 256 291 337 291 448 c 4
 291 510 242 546 200 548 c 5
 178 548 165 543 152 532 c 5
 213 532 262 485 262 422 c 4
 262 359 213 307 151 307 c 4
 89 307 30 352 30 445 c 4
 30 528 95 612 200 612 c 4xed80
 307 612 362 558 382 484 c 5
 405 561 470 638 630 660 c 5xd580
153 467 m 4xe580
 129 467 108 447 108 422 c 4
 108 397 129 377 153 377 c 4
 178 377 198 397 198 422 c 4
 198 447 178 467 153 467 c 4xe580
389 379 m 5
 378 290 320 238 320 170 c 4xc680
 320 133 341 108 370 108 c 4
 399 108 420 120 420 120 c 5
 420 294 l 6
 420 327 403 361 389 379 c 5
EndSplineSet
Fore
SplineSet
650 660 m 1xd5c0
 650 500 l 1
 577 500 524 469 500 440 c 1
 500 440 600 387 600 330 c 2
 600 100 l 1
 600 100 536 -12 360 -12 c 0
 212 -12 120 49 120 155 c 2
 120 175 l 2xd640
 120 261 281 334 281 445 c 0
 281 507 232 543 190 545 c 1
 168 545 155 540 142 529 c 1
 203 529 252 482 252 419 c 0
 252 356 203 304 141 304 c 0
 79 304 20 349 20 442 c 0
 20 525 85 609 190 609 c 0xedc0
 300 609 356 551 374 473 c 1
 415 555 537 660 650 660 c 1xd5c0
143 464 m 0xe540
 119 464 98 444 98 419 c 0
 98 394 119 374 143 374 c 0
 168 374 188 394 188 419 c 0
 188 444 168 464 143 464 c 0xe540
380 428 m 1
 381 421 381 414 381 407 c 0xc4c0
 381 298 310 245 310 170 c 0xc640
 310 133 339 108 368 108 c 0
 414 108 440 130 440 130 c 1
 440 130 420 141 420 200 c 2
 420 360 l 2
 420 393 398 415 380 428 c 1
EndSplineSet
Validated: 1
EndChar

StartChar: uni0E49
Encoding: 3657 3657 24
Width: 0
VWidth: 0
Flags: W
HStem: 988 152<-407.455 -233.219> 988 100<-319 -250.765> 1220 60<-417.068 -342.932>
VStem: -480 60<1142.96 1217.07> -340 60<1142.79 1217.07> -170 150<1176.06 1258>
LayerCount: 2
Back
SplineSet
-300 970 m 4xbc
 -245 970 -200 925 -200 870 c 4
 -200 823 -220 796 -239 778 c 5x7c
 -163 778 -90 876 -90 948 c 5
 60 948 l 5
 60 853 -44 678 -265 678 c 4
 -305 678 -358 687 -400 704 c 5
 -375 718 -346 746 -328 774 c 5
 -369 786 -400 824 -400 870 c 4
 -400 925 -355 970 -300 970 c 4xbc
-300 910 m 4
 -322 910 -340 892 -340 870 c 4
 -340 848 -322 830 -300 830 c 4xbc
 -278 830 -260 848 -260 870 c 4
 -260 892 -278 910 -300 910 c 4
EndSplineSet
Fore
SplineSet
-380 1280 m 0xbc
 -325 1280 -280 1235 -280 1180 c 0
 -280 1133 -300 1106 -319 1088 c 1x7c
 -243 1088 -170 1186 -170 1258 c 5
 -20 1258 l 5
 -20 1163 -124 988 -345 988 c 0
 -385 988 -438 997 -480 1014 c 1
 -455 1028 -426 1056 -408 1084 c 1
 -449 1096 -480 1134 -480 1180 c 0
 -480 1235 -435 1280 -380 1280 c 0xbc
-380 1220 m 0
 -402 1220 -420 1202 -420 1180 c 0
 -420 1158 -402 1140 -380 1140 c 0xbc
 -358 1140 -340 1158 -340 1180 c 0
 -340 1202 -358 1220 -380 1220 c 0
EndSplineSet
Validated: 1
Position2: "Thai Tone and Asc Vowel Fix" dx=-60 dy=-310 dh=0 dv=0
Position2: "Left-Low Tone" dx=-250 dy=-310 dh=0 dv=0
Position2: "Left-High Tone" dx=-80 dy=0 dh=0 dv=0
Position2: "High Tone" dx=100 dy=0 dh=0 dv=0
Position2: "Low Tone" dx=100 dy=-310 dh=0 dv=0
EndChar

StartChar: uni0E16
Encoding: 3606 3606 25
Width: 690
VWidth: 0
Flags: W
HStem: -12 85<160.339 239.661> 0 21G<420 610> 492 120<234.213 389.652>
VStem: 70 190<216.095 339.278> 70 85<79.2666 158.588> 245 85<78.3395 158.487> 420 190<0 458.65>
LayerCount: 2
Back
SplineSet
320 612 m 5xb2
 516 612 609 497 610 334 c 5
 610 0 l 5
 420 0 l 5
 420 334 l 6
 420 417 413 492 320 492 c 4
 248 492 215 452 195 431 c 5
 300 379 l 5
 300 379 260 355 260 324 c 6
 260 233 l 5x72
 302 212 330 168 330 118 c 4
 330 46 272 -12 200 -12 c 4
 128 -12 70 46 70 118 c 6xae
 70 284 l 6
 70 312 102 355 135 374 c 5
 30 423 l 5
 107 544 190 610 320 612 c 5xb2
200 173 m 4
 170 173 145 148 145 118 c 4
 145 88 170 63 200 63 c 4
 230 63 255 88 255 118 c 4xae
 255 148 230 173 200 173 c 4
EndSplineSet
Fore
SplineSet
320 612 m 1xb2
 516 612 609 497 610 334 c 1
 610 0 l 1
 420 0 l 1
 420 334 l 2
 420 417 413 492 320 492 c 0
 248 492 215 452 195 431 c 1
 300 379 l 1
 300 379 260 355 260 324 c 2
 260 233 l 1x72
 302 212 330 168 330 118 c 0
 330 46 272 -12 200 -12 c 0
 128 -12 70 46 70 118 c 2xae
 70 284 l 2
 70 312 102 355 135 374 c 1
 30 423 l 1
 107 544 190 610 320 612 c 1xb2
200 163 m 0
 175 163 155 143 155 118 c 0
 155 93 175 73 200 73 c 0
 225 73 245 93 245 118 c 0xae
 245 143 225 163 200 163 c 0
EndSplineSet
Validated: 1
EndChar

StartChar: uni0E21
Encoding: 3617 3617 27
Width: 690
VWidth: 0
Flags: W
HStem: -12 90<118.642 211.358> 188 224<120.252 211.242> 522 90<118.642 211.358>
VStem: 20 90<86.6419 179.066 420.934 513.358> 120 190<259.56 340.44> 220 90<86.758 133 420.758 513.242> 420 190<142.034 590>
CounterMasks: 1 e0
LayerCount: 2
Back
SplineSet
175 612 m 4xfa
 255 612 320 547 320 467 c 6
 320 253 l 5
 373 224 408 197 430 170 c 5
 430 590 l 5
 620 590 l 5
 620 28 l 5
 620 28 555.846 -6.02103 463.955 -6.02103 c 4
 462.642 -6.02103 461.324 -6.01408 460 -6 c 5
 460 -6 401 95 320 133 c 5xf6
 320 53 255 -12 175 -12 c 4
 95 -12 30 53 30 133 c 4
 30 197 72 252 130 271 c 5
 130 329 l 5
 72 348 30 403 30 467 c 4
 30 547 95 612 175 612 c 4xfa
175 522 m 4
 145 522 120 497 120 467 c 4
 120 437 145 412 175 412 c 4
 205 412 230 437 230 467 c 4
 230 497 205 522 175 522 c 4
175 188 m 4
 145 188 120 163 120 133 c 4
 120 103 145 78 175 78 c 4
 205 78 230 103 230 133 c 4
 230 163 205 188 175 188 c 4
EndSplineSet
Fore
SplineSet
165 612 m 0xfa
 245 612 310 547 310 467 c 2
 310 253 l 1
 372 220 406 195 440 142 c 1
 440 142 420 188 420 230 c 2
 420 590 l 1
 610 590 l 1
 610 40 l 1
 610 40 530 -6 430 -6 c 1
 430 -6 391 95 310 133 c 1xf6
 310 53 245 -12 165 -12 c 0
 85 -12 20 53 20 133 c 0
 20 197 62 252 120 271 c 1
 120 329 l 1
 62 348 20 403 20 467 c 0
 20 547 85 612 165 612 c 0xfa
165 522 m 0
 135 522 110 497 110 467 c 0
 110 437 135 412 165 412 c 0
 195 412 220 437 220 467 c 0
 220 497 195 522 165 522 c 0
165 188 m 0
 135 188 110 163 110 133 c 0
 110 103 135 78 165 78 c 0
 195 78 220 103 220 133 c 0
 220 163 195 188 165 188 c 0
EndSplineSet
Validated: 1
EndChar

StartChar: uni0E06
Encoding: 3590 3590 28
Width: 700
VWidth: 0
Flags: W
HStem: -12 90<128.642 221.358> 188 90<128.642 203.542> 293 65<93.3212 172.788> 448 65<93.3008 173.012>
VStem: 10 78<362.639 488.201> 30 90<86.6419 179.358> 178 64<363.345 442.655> 230 90<86.758 133> 291 100<365.426 512.547> 440 180<142.034 590>
LayerCount: 2
Fore
SplineSet
125 612 m 1xfac0
 195 560 l 1
 265 612 l 1
 265 612 391 552 391 410 c 0xfac0
 391 338 360 289 339 242 c 1
 389 214 430 189 460 142 c 1
 460 142 440 188 440 230 c 2
 440 590 l 1
 620 590 l 1
 620 40 l 1
 620 40 540 -6 440 -6 c 1
 440 -6 401 95 320 133 c 1
 320 53 255 -12 175 -12 c 0
 95 -12 30 53 30 133 c 0xf540
 30 213 95 278 175 278 c 0
 180 278 185 278 190 277 c 1
 236 319 291 383 291 448 c 0
 291 524 258 546 258 546 c 1
 195 500 l 1
 130 546 l 1
 130 546 101 534 93 506 c 1
 104 511 121 513 132 513 c 0
 193 513 242 466 242 403 c 0
 242 340 193 293 131 293 c 0
 69 293 10 333 10 426 c 0
 10 579 125 612 125 612 c 1xfac0
133 448 m 0
 109 448 88 428 88 403 c 0
 88 378 109 358 133 358 c 0
 158 358 178 378 178 403 c 0
 178 428 158 448 133 448 c 0
175 188 m 0
 145 188 120 163 120 133 c 0
 120 103 145 78 175 78 c 0
 205 78 230 103 230 133 c 0xf540
 230 163 205 188 175 188 c 0
EndSplineSet
Validated: 1
EndChar

StartChar: uni0E4C
Encoding: 3660 3660 29
Width: 0
VWidth: 0
Flags: W
HStem: 918 65<-399.868 -319.488>
VStem: -480 75<987.488 1067.73> -315 65<987.488 1068.27> -290 140<1190.56 1279>
LayerCount: 2
Back
SplineSet
-140 1030 m 1xd0
 0 1030 l 1xd0
 0 905 -65 863 -163 862 c 1
 -150 850 -130 827 -130 788 c 0xe0
 -130 727 -179 678 -240 678 c 4
 -301 678 -360 727 -360 788 c 0
 -360 842 -330 895 -246 918 c 0
 -162 940 -140 967 -140 1030 c 1xd0
-240 833 m 0
 -265 833 -285 813 -285 788 c 0
 -285 763 -265 743 -240 743 c 0
 -215 743 -195 763 -195 788 c 0xe0
 -195 813 -215 833 -240 833 c 0
EndSplineSet
Fore
SplineSet
-290 1279 m 1xd0
 -150 1279 l 1xd0
 -150 1154 -199 1103 -283 1102 c 1
 -270 1090 -250 1067 -250 1028 c 0xe0
 -250 967 -299 918 -360 918 c 0
 -421 918 -480 967 -480 1028 c 0
 -480 1082 -447.769 1128.02 -366 1158 c 0
 -306 1180 -290 1216 -290 1279 c 1xd0
-360 1073 m 0
 -385 1073 -405 1053 -405 1028 c 0
 -405 1003 -385 983 -360 983 c 0
 -335 983 -315 1003 -315 1028 c 0xe0
 -315 1053 -335 1073 -360 1073 c 0
EndSplineSet
Validated: 1
Position2: "Thai Tone and Asc Vowel Fix" dx=0 dy=-240 dh=0 dv=0
Position2: "Left-Low Tone" dx=-150 dy=-240 dh=0 dv=0
Position2: "Left-High Tone" dx=-100 dy=10 dh=0 dv=0
Position2: "High Tone" dx=100 dy=10 dh=0 dv=0
Position2: "Low Tone" dx=100 dy=-240 dh=0 dv=0
EndChar

StartChar: uni0E54
Encoding: 3668 3668 30
Width: 1092
VWidth: 0
Flags: W
HStem: 0 160<406.977 689 861.375 972> 510 120<633.128 746.872> 692 180<398.812 819.541>
VStem: 80 210<295.978 568.273> 490 120<372.372 486.872> 770 120<371.796 486.872>
LayerCount: 2
Back
SplineSet
1092 1100 m 5
 1092 900 l 5
 962 900 902 692 902 692 c 5
 492 692 l 5
 369 691 290 592 290 436 c 4
 290 280 369 160 492 160 c 6
 689 160 l 6
 645 160 490 275 490 430 c 4
 490 540 580 630 690 630 c 4
 800 630 890 540 890 430 c 4
 890 355 849 290 789 256 c 5
 837 197 873 160 972 160 c 5
 972 0 l 5
 492 0 l 6
 218 0 80 192 80 436 c 4
 80 680 264 872 492 872 c 6
 792 872 l 5
 792 872 878 1100 1092 1100 c 5
690 510 m 4
 646 510 610 474 610 430 c 4
 610 386 646 350 690 350 c 4
 734 350 770 386 770 430 c 4
 770 474 734 510 690 510 c 4
EndSplineSet
Fore
SplineSet
1092 1100 m 1
 1092 900 l 1
 962 900 959 800 910 742 c 4
 885 712 843 692 777 692 c 6
 777 692 615 692 492 692 c 1
 369 691 290 592 290 436 c 0
 290 280 369 160 492 160 c 2
 689 160 l 2
 645 160 490 275 490 430 c 0
 490 540 580 630 690 630 c 0
 800 630 890 540 890 430 c 0
 890 355 849 290 789 256 c 1
 837 197 873 160 972 160 c 1
 972 0 l 1
 492 0 l 2
 218 0 80 192 80 436 c 0
 80 680 264 872 492 872 c 2
 812 872 l 1
 812 872 878 1100 1092 1100 c 1
690 510 m 0
 646 510 610 474 610 430 c 0
 610 386 646 350 690 350 c 0
 734 350 770 386 770 430 c 0
 770 474 734 510 690 510 c 0
EndSplineSet
EndChar

StartChar: uni0E19
Encoding: 3609 3609 31
Width: 710
VWidth: 0
Flags: W
HStem: -9 90<478.735 571.358> 522 90<118.642 211.358>
VStem: 20 90<420.934 513.358> 120 190<153.023 340.44> 220 90<420.758 513.242> 440 190<268 593> 580 90<89.6419 181.887>
LayerCount: 2
Back
SplineSet
330 170 m 5xf0
 330 170 375 235 460 264 c 5
 460 590 l 5
 650 590 l 5
 650 255 l 5xf4
 634 247 l 5
 668 221 690 179 690 133 c 4
 690 53 625 -12 545 -12 c 4
 471 -12 410 43 401 115 c 5
 339 59 300 -12 300 -12 c 5
 156 -12 140 61 140 205 c 6
 140 295 l 5xf2
 66 309 10 374 10 452 c 4
 10 540 82 612 170 612 c 4
 258 612 330 540 330 452 c 6xe8
 330 170 l 5xf0
170 512 m 4
 137 512 110 485 110 452 c 4
 110 419 137 392 170 392 c 4
 203 392 230 419 230 452 c 4xe8
 230 485 203 512 170 512 c 4
545 188 m 4
 515 188 490 163 490 133 c 4
 490 103 515 78 545 78 c 4
 575 78 600 103 600 133 c 4xe2
 600 163 575 188 545 188 c 4
EndSplineSet
Fore
SplineSet
165 612 m 0xf2
 245 612 310 547 310 467 c 2xe8
 310 243 l 2
 310 184 290 153 290 153 c 1
 290 153 351 228 440 277 c 1
 440 593 l 1
 630 593 l 1
 630 268 l 1xf4
 614 250 l 1
 648 224 670 182 670 136 c 0
 670 56 605 -9 525 -9 c 0
 451 -9 390 46 381 118 c 1
 319 62 280 -3 280 -3 c 1
 136 -3 120 64 120 208 c 2
 120 329 l 1
 62 348 20 403 20 467 c 0
 20 547 85 612 165 612 c 0xf2
165 522 m 0
 135 522 110 497 110 467 c 0
 110 437 135 412 165 412 c 0
 195 412 220 437 220 467 c 0
 220 497 195 522 165 522 c 0
525 191 m 0
 495 191 470 166 470 136 c 0
 470 106 495 81 525 81 c 0
 555 81 580 106 580 136 c 0xe2
 580 166 555 191 525 191 c 0
EndSplineSet
Validated: 1
EndChar

StartChar: uni0E2B
Encoding: 3627 3627 32
Width: 710
VWidth: 0
Flags: W
HStem: 0 21G<120 310 440 630> 522 90<118.642 211.358> 537 75<474.489 565.511>
VStem: 20 90<420.934 513.358> 120 190<0 153.464 293 340.44> 220 90<420.758 513.242> 390 75<435.506 527.511> 440 190<0 288> 575 75<436.039 527.511>
LayerCount: 2
Fore
SplineSet
165 612 m 0xd9
 245 612 310 547 310 467 c 2xd4
 310 293 l 1
 322 324 386 388 420 410 c 1
 407 427 390 451 390 482 c 0
 390 554 448 612 520 612 c 0
 592 612 650 554 650 482 c 0xba80
 650 441 630 404 600 380 c 1
 630 360 l 1
 630 0 l 1
 440 0 l 1
 440 288 l 1
 351 195 310 150 310 0 c 1
 120 0 l 1
 120 329 l 1
 62 348 20 403 20 467 c 0
 20 547 85 612 165 612 c 0xd9
520 537 m 0xb280
 490 537 465 512 465 482 c 0
 465 452 490 427 520 427 c 0
 550 427 575 452 575 482 c 0
 575 512 550 537 520 537 c 0xb280
165 522 m 0xd4
 135 522 110 497 110 467 c 0
 110 437 135 412 165 412 c 0
 195 412 220 437 220 467 c 0
 220 497 195 522 165 522 c 0xd4
EndSplineSet
Validated: 1
EndChar

StartChar: uni0E23
Encoding: 3619 3619 33
Width: 590
VWidth: 0
Flags: W
HStem: -12 100<324.873 405.127> 492 120<207.199 395.272>
VStem: 220 100<92.8728 173.507> 410 100<93.3332 173.588>
LayerCount: 2
Back
SplineSet
300 612 m 4xd0
 388 612 451 571 480 540 c 5
 511 585 570 605 570 605 c 5
 570 480 l 5
 570 480 534 477 480 420 c 5
 424 476 354 492 300 492 c 4
 246 492 200 456 200 424 c 5
 375 404 510 386 510 284 c 6xd0
 510 118 l 6
 510 46 452 -12 380 -12 c 4
 308 -12 250 46 250 118 c 4xe8
 250 168 278 212 320 233 c 5
 320 281 l 6
 320 346 95 344 10 354 c 5
 10 524 180 612 300 612 c 4xd0
380 163 m 4
 355 163 335 143 335 118 c 4
 335 93 355 73 380 73 c 4
 405 73 425 93 425 118 c 4xe8
 425 143 405 163 380 163 c 4
EndSplineSet
Fore
SplineSet
280 612 m 0
 368 612 431 571 460 540 c 1
 491 585 550 605 550 605 c 1
 550 480 l 1
 550 480 514 477 460 420 c 1
 404 476 334 492 280 492 c 0
 226 492 180 456 180 424 c 1
 355 404 510 386 510 284 c 6
 510 133 l 6
 510 53 445 -12 365 -12 c 4
 285 -12 220 53 220 133 c 4
 220 197 262 252 320 271 c 5
 320 281 l 6
 320 346 85 344 0 354 c 1
 0 524 160 612 280 612 c 0
365 178 m 4
 340 178 320 158 320 133 c 4
 320 108 340 88 365 88 c 4
 390 88 410 108 410 133 c 4
 410 158 390 178 365 178 c 4
EndSplineSet
Validated: 1
EndChar

StartChar: uni0E4A
Encoding: 3658 3658 35
Width: 0
VWidth: 0
Flags: W
HStem: 988 50<-468.588 -394.925> 1118 50<-442.457 -395.719>
VStem: -540 97<1166.14 1212.06> -540 68<1042.15 1115.56> -392 50<1040.81 1114.76> -290 99<1097.85 1213.91> -155 135<1124.27 1260>
LayerCount: 2
Back
SplineSet
-310 957 m 1xde
 -250 913 l 1
 -190 957 l 1
 -113 957 -71 882 -71 821 c 0
 -71 809 -73 797 -76 787 c 1
 -47 825 -35 884 -35 950 c 1
 100 950 l 1
 100 729 -14 678 -217 678 c 5
 -186 722 -170 767 -170 811 c 0
 -170 843 -178 874 -195 905 c 1
 -250 863 l 1
 -310 905 l 1
 -310 905 -323 886 -323 866 c 0xee
 -323 863 -323 859 -322 856 c 1
 -322 856 -317 858 -312 858 c 0
 -261 858 -222 816 -222 768 c 0
 -222 718 -262 678 -312 678 c 4
 -383 678 -420 729 -420 808 c 1
 -420 809 -420 809 -420 810 c 0
 -420 881 -373 957 -310 957 c 1xde
-312 808 m 0
 -334 808 -352 790 -352 768 c 0xde
 -352 746 -334 728 -312 728 c 0
 -289 728 -272 746 -272 768 c 0
 -272 790 -289 808 -312 808 c 0
EndSplineSet
Fore
SplineSet
-430 1267 m 1xde
 -370 1223 l 1
 -310 1267 l 1
 -233 1267 -191 1192 -191 1131 c 0
 -191 1119 -193 1107 -196 1097 c 1
 -167 1135 -155 1194 -155 1260 c 1
 -20 1260 l 1
 -20 1039 -134 988 -337 988 c 1
 -306 1032 -290 1077 -290 1121 c 0
 -290 1153 -298 1184 -315 1215 c 1
 -370 1173 l 1
 -430 1215 l 1
 -430 1215 -443 1196 -443 1176 c 0xee
 -443 1173 -443 1169 -442 1166 c 1
 -442 1166 -437 1168 -432 1168 c 0
 -381 1168 -342 1126 -342 1078 c 0
 -342 1028 -382 988 -432 988 c 0
 -503 988 -540 1039 -540 1118 c 1
 -540 1119 -540 1119 -540 1120 c 0
 -540 1191 -493 1267 -430 1267 c 1xde
-432 1118 m 0
 -454 1118 -472 1100 -472 1078 c 0xde
 -472 1056 -454 1038 -432 1038 c 0
 -409 1038 -392 1056 -392 1078 c 0
 -392 1100 -409 1118 -432 1118 c 0
EndSplineSet
Validated: 1
Position2: "Thai Tone and Asc Vowel Fix" dx=-60 dy=-310 dh=0 dv=0
Position2: "Left-Low Tone" dx=-250 dy=-310 dh=0 dv=0
Position2: "Left-High Tone" dx=-100 dy=0 dh=0 dv=0
Position2: "High Tone" dx=100 dy=0 dh=0 dv=0
Position2: "Low Tone" dx=100 dy=-310 dh=0 dv=0
EndChar

StartChar: uni0E47
Encoding: 3655 3655 36
Width: 0
VWidth: 0
Flags: W
HStem: 674 60<-296.502 -222.545> 680 85<-550.227 -518> 814 50<-296 -224> 885 75<-507.418 -303.575> 900 85<-548.298 -374.482>
VStem: -680 120<771.466 888.724> -350 50<762.072 810> -250 130<1013.5 1090> -220 50<738.116 810>
LayerCount: 2
Back
SplineSet
-50 1090 m 5x37
 -50 949 -175 885 -297 885 c 4x37
 -360 885 -371 900 -434 900 c 4
 -459 900 -490 879 -490 835 c 4
 -490 792 -469 765 -448 765 c 5x6f
 -390 838 l 5
 -320 838 l 5
 -320 785 -278 762 -278 762 c 5
 -278 762 -280 768 -280 774 c 4
 -280 824 -240 864 -190 864 c 4
 -140 864 -100 824 -100 774 c 4
 -100 723 -140 674 -215 674 c 4xa680
 -291 674 -329 693 -371 754 c 5
 -430 680 l 5
 -578 680 -610 760 -610 835 c 4
 -610 911 -541 985 -447 985 c 4x6e80
 -377 985 -351 960 -307 960 c 4
 -235 960 -180 1021 -180 1090 c 5
 -50 1090 l 5x37
-190 814 m 4
 -212 814 -230 796 -230 774 c 4
 -230 752 -212 734 -190 734 c 4
 -168 734 -150 752 -150 774 c 4xa680
 -150 796 -168 814 -190 814 c 4
EndSplineSet
Fore
SplineSet
-120 1090 m 5x37
 -120 949 -245 885 -367 885 c 4x37
 -430 885 -441 900 -504 900 c 4
 -529 900 -560 879 -560 835 c 4
 -560 792 -539 765 -518 765 c 5x6f
 -460 838 l 5
 -390 838 l 5
 -390 785 -348 762 -348 762 c 5
 -348 762 -350 768 -350 774 c 4
 -350 824 -310 864 -260 864 c 4
 -210 864 -170 824 -170 774 c 4
 -170 723 -210 674 -285 674 c 4xa680
 -361 674 -399 693 -441 754 c 5
 -500 680 l 5
 -648 680 -680 760 -680 835 c 4
 -680 911 -611 985 -517 985 c 4x6e80
 -447 985 -421 960 -377 960 c 4
 -305 960 -250 1021 -250 1090 c 5
 -120 1090 l 5x37
-260 814 m 4
 -282 814 -300 796 -300 774 c 4
 -300 752 -282 734 -260 734 c 4
 -238 734 -220 752 -220 774 c 4xa680
 -220 796 -238 814 -260 814 c 4
EndSplineSet
Validated: 1
Position2: "Left Upper Vowel" dx=-120 dy=0 dh=0 dv=0
Position2: "Normal Upper Vowel" dx=70 dy=0 dh=0 dv=0
EndChar

StartChar: uni0E32
Encoding: 3634 3634 37
Width: 540
VWidth: 0
Flags: W
HStem: 0 21G<280 470> 492 120<81.74 248.542>
VStem: 280 190<0 457.321>
LayerCount: 2
Back
SplineSet
330 0 m 5
 330 356 l 5
 328 456 301 498 220 498 c 4
 155 498 122 476 50 425 c 5
 0 526 l 5
 71 587 153 618 220 618 c 4
 381 618 520 567 520 356 c 6
 520 0 l 5
 330 0 l 5
EndSplineSet
Fore
SplineSet
280 0 m 1
 280 350 l 1
 278 450 248 492 195 492 c 0
 108 492 68 463 0 410 c 1
 0 540 l 1
 45 575 99 612 195 612 c 0
 387 612 470 522 470 350 c 2
 470 0 l 1
 280 0 l 1
EndSplineSet
Validated: 1
Substitution2: "Thai Lakkhangyao" uni0E45
EndChar

StartChar: uni0E27
Encoding: 3623 3623 38
Width: 570
VWidth: 0
Flags: W
HStem: -12 100<314.871 395.129> 492 120<97.0897 283.21>
VStem: 210 100<92.871 173.564> 310 190<259.488 459.687> 400 100<93.3046 173.562>
LayerCount: 2
Back
SplineSet
230 612 m 4xd0
 391 612 520 561 520 350 c 6xd0
 520 118 l 6
 520 46 462 -12 390 -12 c 4
 318 -12 260 46 260 118 c 4xe8
 260 168 288 212 330 233 c 5
 330 350 l 5
 328 450 311 492 230 492 c 4
 143 492 88 457 20 410 c 5
 20 540 l 5
 65 575 134 612 230 612 c 4xd0
390 163 m 4
 365 163 345 143 345 118 c 4
 345 93 365 73 390 73 c 4
 415 73 435 93 435 118 c 4xe8
 435 143 415 163 390 163 c 4
EndSplineSet
Fore
SplineSet
210 612 m 0xe0
 371 612 500 561 500 350 c 2xd0
 500 133 l 2
 500 52.9189 435.081 -12 355 -12 c 0
 274.919 -12 210 52.9189 210 133 c 0xe8
 210 197.372 251.948 251.941 310 270.875 c 1
 310 350 l 1xd0
 308 450 291 492 210 492 c 0
 123 492 78 457 10 410 c 1
 10 540 l 1
 55 575 114 612 210 612 c 0xe0
355 178 m 0
 330.147 178 310 157.853 310 133 c 0
 310 108.147 330.147 88 355 88 c 0
 379.853 88 400 108.147 400 133 c 0xe8
 400 157.853 379.853 178 355 178 c 0
EndSplineSet
Validated: 1
EndChar

StartChar: uni0E4D
Encoding: 3661 3661 39
Width: 0
VWidth: 0
Flags: W
HStem: 670 85<-332.683 -237.317> 875 85<-332.683 -237.317>
VStem: -430 85<767.317 862.683> -225 85<767.317 862.683>
LayerCount: 2
Back
SplineSet
-185 960 m 4
 -105 960 -40 895 -40 815 c 4
 -40 735 -105 670 -185 670 c 4
 -265 670 -330 735 -330 815 c 4
 -330 895 -265 960 -185 960 c 4
-185 875 m 4
 -218 875 -245 848 -245 815 c 4
 -245 782 -218 755 -185 755 c 4
 -152 755 -125 782 -125 815 c 4
 -125 848 -152 875 -185 875 c 4
EndSplineSet
Fore
SplineSet
-285 960 m 0
 -205 960 -140 895 -140 815 c 0
 -140 735 -205 670 -285 670 c 0
 -365 670 -430 735 -430 815 c 0
 -430 895 -365 960 -285 960 c 0
-285 875 m 0
 -318 875 -345 848 -345 815 c 0
 -345 782 -318 755 -285 755 c 0
 -252 755 -225 782 -225 815 c 0
 -225 848 -252 875 -285 875 c 0
EndSplineSet
Validated: 1
Position2: "Normal Upper Vowel" dx=100 dy=0 dh=0 dv=0
Position2: "Left Upper Vowel" dx=-150 dy=0 dh=0 dv=0
EndChar

StartChar: uni0E39
Encoding: 3641 3641 40
Width: 0
VWidth: 0
Flags: W
HStem: -580 90<-277.443 -222.047> -309 75<-439.484 -360.516>
VStem: -520 75<-394.088 -314.516> -355 75<-394.588 -315.619> -220 140<-489.879 -250>
LayerCount: 2
Back
SplineSet
-400 -54 m 4
 -334 -54 -280 -108 -280 -174 c 2
 -280 -279 l 2
 -280 -309 -273 -326 -250 -326 c 0
 -232 -326 -220 -319 -220 -319 c 1
 -220 -70 l 1
 -80 -70 l 1
 -80 -369 l 1
 -80 -369 -156 -406 -250 -406 c 0
 -343 -406 -420 -383 -420 -314 c 2
 -420 -292 l 1
 -477 -283 -520 -233 -520 -174 c 0
 -520 -108 -466 -54 -400 -54 c 4
-400 -129 m 0
 -425 -129 -445 -149 -445 -174 c 0
 -445 -199 -425 -219 -400 -219 c 0
 -375 -219 -355 -199 -355 -174 c 0
 -355 -149 -375 -129 -400 -129 c 0
EndSplineSet
Fore
SplineSet
-400 -234 m 0
 -334 -234 -280 -288 -280 -354 c 2
 -280 -449 l 2
 -280 -479 -273 -490 -250 -490 c 0
 -232 -490 -220 -483 -220 -483 c 1
 -220 -250 l 1
 -80 -250 l 1
 -80 -528 l 1
 -80 -528 -156 -580 -250 -580 c 0
 -343 -580 -420 -557 -420 -488 c 2
 -420 -472 l 1
 -477 -463 -520 -413 -520 -354 c 0
 -520 -288 -466 -234 -400 -234 c 0
-400 -309 m 0
 -425 -309 -445 -329 -445 -354 c 0
 -445 -379 -425 -399 -400 -399 c 0
 -375 -399 -355 -379 -355 -354 c 0
 -355 -329 -375 -309 -400 -309 c 0
EndSplineSet
Validated: 1
Position2: "Lower Vowel" dx=0 dy=180 dh=0 dv=0
EndChar

StartChar: uni0E4E
Encoding: 3662 3662 41
Width: 0
VWidth: 0
Flags: W
HStem: 678 85<-456.474 -410> 883 85<-456.474 -410> 1028 85<-312.683 -217.317>
VStem: -555 85<775.317 870.683> -410 85<968 1014.47> -205 85<968 1014.47>
LayerCount: 2
Fore
SplineSet
-265 1113 m 0
 -185 1113 -120 1048 -120 968 c 1
 -205 968 l 1
 -205 1001 -232 1028 -265 1028 c 0
 -298 1028 -325 1001 -325 968 c 0
 -325 945 -304 923 -304 923 c 1
 -269 888 l 1
 -329 828 l 1
 -342 840 -355 852 -365 862 c 1
 -376 875 -392 883 -410 883 c 0
 -443 883 -470 856 -470 823 c 0
 -470 790 -443 763 -410 763 c 1
 -410 678 l 1
 -490 678 -555 743 -555 823 c 0
 -555 903 -490 968 -410 968 c 1
 -410 1048 -345 1113 -265 1113 c 0
EndSplineSet
Validated: 1
EndChar

StartChar: uni0E1D
Encoding: 3613 3613 42
Width: 750
VWidth: 0
Flags: W
HStem: 522 90<148.642 241.358>
VStem: 50 190<114.789 340.44> 50 90<420.758 513.242> 250 90<420.934 513.358> 480 190<110.036 860>
LayerCount: 2
Fore
SplineSet
195 612 m 0xb8
 275 612 340 547 340 467 c 0
 340 403 298 348 240 329 c 1
 240 220 l 2
 240 156 230 110 230 110 c 1
 330 330 l 1
 390 330 l 1
 490 110 l 1
 490 110 480 159 480 220 c 2
 480 860 l 1
 670 860 l 1
 670 60 l 1
 670 60 595 -12 450 -12 c 1
 360 200 l 1
 270 -12 l 1
 111 -12 50 43 50 220 c 2xd8
 50 467 l 2
 50 547 115 612 195 612 c 0xb8
195 522 m 0
 165 522 140 497 140 467 c 0xb8
 140 437 165 412 195 412 c 0
 225 412 250 437 250 467 c 0
 250 497 225 522 195 522 c 0
EndSplineSet
Validated: 1
EndChar

StartChar: uni0E1F
Encoding: 3615 3615 43
Width: 800
VWidth: 0
Flags: W
HStem: 522 90<108.642 201.358>
VStem: 10 90<421.072 513.358> 120 180<116.232 335.099> 210 90<420.758 513.242> 540 180<110.091 860>
LayerCount: 2
Fore
SplineSet
155 612 m 0xe8
 235 612 300 547 300 467 c 2xd8
 300 280 l 2
 300 240 280 110 280 110 c 1
 385 540 l 1
 455 540 l 1
 560 110 l 1
 560 110 540 235 540 280 c 2
 540 860 l 1
 720 860 l 1
 720 60 l 1
 720 60 650 -12 505 -12 c 1
 420 360 l 1
 335 -12 l 1
 176 -12 120 16 120 220 c 2
 120 326 l 1
 57 342 10 399 10 467 c 0
 10 547 75 612 155 612 c 0xe8
155 522 m 0
 125 522 100 497 100 467 c 0
 100 437 125 412 155 412 c 0
 185 412 210 437 210 467 c 0
 210 497 185 522 155 522 c 0
EndSplineSet
Validated: 1
EndChar

StartChar: uni0E05
Encoding: 3589 3589 44
Width: 730
VWidth: 0
Flags: W
HStem: 0 21G<90 262.222 470 650> 210 65<294.361 375.512> 365 65<294.493 375.456>
VStem: 50 135<242.536 463.455> 90 170<0 214.946> 380 65<279.488 360.512> 470 180<0 482.604>
LayerCount: 2
Back
SplineSet
205 618 m 5xf6
 305 548 l 5
 405 618 l 5
 508 593 608 549 610 394 c 5
 610 0 l 5
 430 0 l 5
 430 394 l 6
 430 466 416 500 395 521 c 5
 305 458 l 5
 215 521 l 5
 165 504 148 419 148 317 c 4xf6
 148 284 152 251 159 220 c 5
 176 354 214 430 300 430 c 4
 367 430 410 381 410 320 c 4
 410 259 361 210 300 210 c 4
 268 210 250 225 250 225 c 5
 250 225 235 202 235 0 c 5
 45 0 l 5xee
 45 160 20 189 20 335 c 4
 20 510 94 582 205 618 c 5xf6
300 365 m 4
 275 365 255 345 255 320 c 4
 255 295 275 275 300 275 c 4
 325 275 345 295 345 320 c 4
 345 345 325 365 300 365 c 4
EndSplineSet
Fore
SplineSet
230 612 m 1xf6
 345 538 l 1
 460 612 l 1
 616 570 649 461 650 340 c 2
 650 0 l 1
 470 0 l 1
 470 390 l 2
 470 458 460 488 430 504 c 1
 345 454 l 1
 250 504 l 1
 218 481 185 439 185 390 c 0xf6
 185 304 198 266 203 240 c 1
 219 396 270 430 335 430 c 0
 402 430 445 381 445 320 c 0
 445 259 396 210 335 210 c 0
 303 210 285 225 285 225 c 1
 266 208 260 0 260 0 c 1
 90 0 l 1xee
 90 188 50 206 50 340 c 0
 51 461 95 569 230 612 c 1xf6
335 365 m 0
 310 365 290 345 290 320 c 0
 290 295 310 275 335 275 c 0
 360 275 380 295 380 320 c 0
 380 345 360 365 335 365 c 0
EndSplineSet
Validated: 1
EndChar

StartChar: uni0E07
Encoding: 3591 3591 45
Width: 620
VWidth: 0
Flags: W
HStem: 522 90<348.642 441.358>
VStem: 250 90<420.582 513.358> 360 180<130.052 337.518> 450 90<420.758 513.242>
LayerCount: 2
Back
SplineSet
415 612 m 4xe0
 495 612 560 547 560 467 c 6
 560 38 l 5xd0
 560 38 471 -12 350 -12 c 5
 255 203 40 290 40 290 c 5
 40 450 l 5
 40 450 296 326 370 150 c 5
 370 329 l 5
 312 348 270 403 270 467 c 4
 270 547 335 612 415 612 c 4xe0
415 522 m 4
 385 522 360 497 360 467 c 4
 360 437 385 412 415 412 c 4
 445 412 470 437 470 467 c 4
 470 497 445 522 415 522 c 4
EndSplineSet
Fore
SplineSet
395 612 m 0xe0
 475 612 540 547 540 467 c 2
 540 38 l 1xd0
 540 38 461 -12 340 -12 c 1
 283 96 99 268 20 290 c 1
 20 460 l 1
 112 423 321 282 385 130 c 1
 385 130 360 201 360 243 c 2
 360 329 l 1
 297 343 250 403 250 467 c 0
 250 547 315 612 395 612 c 0xe0
395 522 m 0
 365 522 340 497 340 467 c 0
 340 437 365 412 395 412 c 0
 425 412 450 437 450 467 c 0
 450 497 425 522 395 522 c 0
EndSplineSet
Validated: 1
EndChar

StartChar: uni0E08
Encoding: 3592 3592 46
Width: 640
VWidth: 0
Flags: W
HStem: 157 85<150.339 230.112> 332 85<150.339 227.765> 492 120<133.311 349.536>
VStem: 60 85<247.339 326.661> 370 190<22.3321 155.215> 405 155<253.239 436.877>
LayerCount: 2
Back
SplineSet
250 612 m 4
 411 612 570 561 570 350 c 6
 570 36 l 5
 570 36 489 -12 370 -12 c 5
 370 -12 349 139 291 191 c 5
 271 178 246 170 220 170 c 4
 148 170 90 228 90 300 c 4
 90 372 148 430 220 430 c 4
 250 430 289 416 314 394 c 4
 389 327 400 217 410 180 c 5
 400 360 l 6
 394 479 331 492 250 492 c 4
 185 492 110 471 40 420 c 5
 40 540 l 5
 97 591 183 612 250 612 c 4
220 355 m 4
 190 355 165 330 165 300 c 4
 165 270 190 245 220 245 c 4
 250 245 275 270 275 300 c 4
 275 330 250 355 220 355 c 4
EndSplineSet
Fore
SplineSet
260 612 m 0xf4
 421 612 560 552 560 341 c 2xf4
 560 25 l 1
 560 25 473 -9 370 -9 c 1xf8
 370 93 340 186 308 232 c 1
 287 188 242 157 190 157 c 0
 118 157 60 215 60 287 c 0
 60 359 118 417 190 417 c 0
 348 417 390 252 390 252 c 1
 399 278 405 332 405 357 c 0
 405 454 334 492 255 492 c 0
 172 492 89 456 20 402 c 1
 20 522 l 1
 68 562 165 612 260 612 c 0xf4
190 332 m 0
 165 332 145 312 145 287 c 0
 145 262 165 242 190 242 c 0
 215 242 235 262 235 287 c 0
 235 312 215 332 190 332 c 0
EndSplineSet
Validated: 1
EndChar

StartChar: uni0E09
Encoding: 3593 3593 47
Width: 680
VWidth: 0
Flags: W
HStem: -15 90<448.723 541.358> 348 75<134.489 225.511> 505 110<161.764 379.979>
VStem: 50 75<246.698 338.511> 235 75<246.758 337.78> 430 170<252 454.213> 550 90<83.6419 175.887>
LayerCount: 2
Back
SplineSet
290 624 m 4xfc
 451 624 590 567 590 356 c 6
 590 249 l 5xfc
 574 241 l 5
 608 215 630 173 630 127 c 4xfa
 630 47 565 -18 485 -18 c 4
 420 -18 366 24 347 83 c 5
 316 65 274 26 250 -12 c 5
 141 -12 112 50 110 94 c 5
 110 185 l 5
 68 207 40 250 40 300 c 4
 40 372 98 430 170 430 c 4
 242 430 300 372 300 300 c 4
 300 262 300 193 300 160 c 5
 300 160 350 209 400 240 c 5
 400 356 l 5
 398 456 371 504 290 504 c 4
 211 504 145 498 50 436 c 5
 0 531 l 5
 92 601 200 624 290 624 c 4xfc
170 355 m 4
 140 355 115 330 115 300 c 4
 115 270 140 245 170 245 c 4
 200 245 225 270 225 300 c 4
 225 330 200 355 170 355 c 4
485 182 m 4
 455 182 430 157 430 127 c 4
 430 97 455 72 485 72 c 4
 515 72 540 97 540 127 c 4xfa
 540 157 515 182 485 182 c 4
EndSplineSet
Fore
SplineSet
300 615 m 0xfc
 461 615 600 555 600 344 c 2
 600 252 l 1xfc
 584 244 l 1
 618 218 640 176 640 130 c 0xfa
 640 50 575 -15 495 -15 c 0
 430 -15 376 27 357 86 c 1
 326 68 284 26 260 -12 c 1
 151 -12 137 53 135 97 c 1
 135 173 l 1
 79 191 50 243 50 293 c 0
 50 365 108 423 180 423 c 0
 252 423 310 365 310 293 c 0
 310 258 310 246 310 217 c 0
 310 180 290 125 290 125 c 1
 326 172 398 237 430 250 c 1
 435 356 l 1
 435 453 374 505 295 505 c 0
 212 505 109 468 40 414 c 1
 40 529 l 1
 88 569 205 615 300 615 c 0xfc
180 348 m 0
 150 348 125 323 125 293 c 0
 125 263 150 238 180 238 c 0
 210 238 235 263 235 293 c 0
 235 323 210 348 180 348 c 0
495 185 m 0
 465 185 440 160 440 130 c 0
 440 100 465 75 495 75 c 0
 525 75 550 100 550 130 c 0xfa
 550 160 525 185 495 185 c 0
EndSplineSet
Validated: 1
EndChar

StartChar: uni0E0C
Encoding: 3596 3596 48
Width: 990
VWidth: 0
Flags: W
HStem: -12 85<160.339 239.661> -12 75<464.489 555.488> 492 120<234.213 389.652>
VStem: 70 190<216.095 339.278> 70 85<79.2666 158.588> 245 85<78.3395 158.487> 380 75<72.4892 164.394> 420 190<234 458.65> 720 190<122.038 590>
LayerCount: 2
Back
SplineSet
320 612 m 5xe1
 516 612 609 497 610 334 c 5
 610 225 l 5xe3
 676 195 722 155 740 122 c 5
 740 122 720 174 720 230 c 6
 720 590 l 5
 910 590 l 5
 910 28 l 5
 910 28 841 -12 740 -12 c 5
 740 -12 694 66 637 92 c 5
 625 32 573 -12 510 -12 c 4
 438 -12 380 46 380 118 c 4xc5
 380 162 402 200 435 224 c 5
 420 234 l 5
 420 334 l 6
 420 417 413 492 320 492 c 4
 248 492 215 452 195 431 c 5
 300 379 l 5
 300 379 260 355 260 324 c 6
 260 233 l 5xe3
 302 212 330 168 330 118 c 4
 330 46 272 -12 200 -12 c 4
 128 -12 70 46 70 118 c 6xd9
 70 284 l 6
 70 312 102 355 135 374 c 5
 30 423 l 5
 107 544 190 610 320 612 c 5xe1
200 173 m 4
 170 173 145 148 145 118 c 4
 145 88 170 63 200 63 c 4
 230 63 255 88 255 118 c 4xd9
 255 148 230 173 200 173 c 4
510 173 m 4
 480 173 455 148 455 118 c 4xc5
 455 88 480 63 510 63 c 4
 540 63 565 88 565 118 c 4
 565 148 540 173 510 173 c 4
EndSplineSet
Fore
SplineSet
320 612 m 1xb080
 516 612 609 497 610 334 c 1
 610 225 l 1xb180
 676 195 722 155 740 122 c 1
 740 122 720 174 720 230 c 2
 720 590 l 1
 910 590 l 1
 910 28 l 1
 910 28 841 -12 740 -12 c 1
 740 -12 694 66 637 92 c 1
 625 32 573 -12 510 -12 c 0
 438 -12 380 46 380 118 c 0x6280
 380 162 402 200 435 224 c 1
 420 234 l 1
 420 334 l 2
 420 417 413 492 320 492 c 0
 248 492 215 452 195 431 c 1
 300 379 l 1
 300 379 260 355 260 324 c 2
 260 233 l 1x7180
 302 212 330 168 330 118 c 0
 330 46 272 -12 200 -12 c 0
 128 -12 70 46 70 118 c 2xac80
 70 284 l 2
 70 312 102 355 135 374 c 1
 30 423 l 1
 107 544 190 610 320 612 c 1xb080
510 173 m 0
 480 173 455 148 455 118 c 0
 455 88 480 63 510 63 c 0x6280
 540 63 565 88 565 118 c 0
 565 148 540 173 510 173 c 0
200 163 m 0
 175 163 155 143 155 118 c 0
 155 93 175 73 200 73 c 0
 225 73 245 93 245 118 c 0xac80
 245 143 225 163 200 163 c 0
EndSplineSet
Validated: 1
EndChar

StartChar: uni0E0E
Encoding: 3598 3598 49
Width: 690
VWidth: 0
Flags: W
HStem: -302 60<142.437 217.295> -162 60<142.726 217.388> -12 85<110.339 189.661> 492 120<234.213 389.652>
VStem: 20 85<78.3395 158.487> 80 60<-239.068 -164.932> 90 190<216.095 358.22> 195 85<79.2666 158.588> 270 100<-118.29 -60> 420 190<-201.963 458.65>
LayerCount: 2
Back
SplineSet
320 612 m 5xf240
 516 612 609 497 610 334 c 5
 610 -230 l 5
 610 -230 545 -288 440 -302 c 5
 440 -302 373 -255 314 -220 c 5
 289 -268 245 -302 180 -302 c 4
 128 -302 80 -257 80 -202 c 4
 80 -147 124 -102 180 -102 c 4
 213 -102 228 -105 262 -119 c 5
 266 -104 270 -80 270 -60 c 5
 370 -60 l 5xf4c0
 370 -88 361 -117 349 -146 c 5
 396 -173 440 -202 440 -202 c 5
 440 -202 420 -152 420 -72 c 6
 420 334 l 6
 420 417 413 492 320 492 c 4
 248 492 215 452 195 431 c 5
 300 379 l 5
 300 379 280 355 280 324 c 6xf240
 280 118 l 6
 280 46 222 -12 150 -12 c 4
 78 -12 20 46 20 118 c 4xf940
 20 168 48 212 90 233 c 5
 90 284 l 6
 90 312 102 355 135 374 c 5
 30 423 l 5
 107 544 190 610 320 612 c 5xf240
150 173 m 4
 120 173 95 148 95 118 c 4
 95 88 120 63 150 63 c 4
 180 63 205 88 205 118 c 4xf940
 205 148 180 173 150 173 c 4
180 -162 m 4
 158 -162 140 -180 140 -202 c 4xf440
 140 -224 158 -242 180 -242 c 4
 202 -242 220 -224 220 -202 c 4
 220 -180 202 -162 180 -162 c 4
320 612 m 1xf240
 516 612 609 497 610 334 c 1
 610 -230 l 1
 610 -230 525 -288 420 -302 c 1
 420 -302 368 -250 309 -215 c 1
 300 -229 290 -242 280 -254 c 0
 258 -281 232 -302 180 -302 c 0
 128 -302 80 -257 80 -202 c 0
 80 -147 124 -102 180 -102 c 0
 213 -102 234 -105 272 -114 c 1
 276 -99 280 -80 280 -60 c 1
 370 -60 l 1xf4c0
 370 -88 361 -117 349 -146 c 1
 396 -173 420 -202 420 -202 c 1
 420 334 l 2
 420 417 413 492 320 492 c 0
 248 492 215 452 195 431 c 1
 300 379 l 1
 300 379 280 355 280 324 c 2xf240
 280 118 l 2
 280 46 222 -12 150 -12 c 0
 78 -12 20 46 20 118 c 0xf940
 20 168 48 212 90 233 c 1
 90 284 l 2
 90 312 102 355 135 374 c 1
 30 423 l 1
 107 544 190 610 320 612 c 1xf240
150 173 m 0
 120 173 95 148 95 118 c 0
 95 88 120 63 150 63 c 0
 180 63 205 88 205 118 c 0xf940
 205 148 180 173 150 173 c 0
180 -162 m 0
 158 -162 140 -180 140 -202 c 0xf440
 140 -224 158 -242 180 -242 c 0
 202 -242 220 -224 220 -202 c 0
 220 -180 202 -162 180 -162 c 0
EndSplineSet
Fore
SplineSet
320 612 m 1xf240
 516 612 609 497 610 334 c 1
 610 -230 l 1
 610 -230 545 -288 440 -302 c 1
 440 -302 373 -255 314 -220 c 1
 289 -268 245 -302 180 -302 c 0
 128 -302 80 -257 80 -202 c 0
 80 -147 124 -102 180 -102 c 0
 213 -102 228 -105 262 -119 c 1
 266 -104 270 -80 270 -60 c 1
 370 -60 l 1xf4c0
 370 -88 361 -117 349 -146 c 1
 396 -173 440 -202 440 -202 c 1
 440 -202 420 -152 420 -72 c 2
 420 334 l 2
 420 417 413 492 320 492 c 0
 248 492 215 452 195 431 c 1xf140
 300 379 l 1
 300 379 280 355 280 324 c 2xf240
 280 118 l 2
 280 46 222 -12 150 -12 c 0
 78 -12 20 46 20 118 c 0xf940
 20 168 48 212 90 233 c 1
 90 284 l 2
 90 312 102 355 135 374 c 1
 30 423 l 1
 107 544 190 610 320 612 c 1xf240
150 163 m 0
 125 163 105 143 105 118 c 0
 105 93 125 73 150 73 c 0
 175 73 195 93 195 118 c 0xf940
 195 143 175 163 150 163 c 0
180 -162 m 0
 158 -162 140 -180 140 -202 c 0xf440
 140 -224 158 -242 180 -242 c 0
 202 -242 220 -224 220 -202 c 0
 220 -180 202 -162 180 -162 c 0
EndSplineSet
Validated: 1
Substitution2: "Thai Descent Shorten" uni0E0E.short
EndChar

StartChar: uni0E0F
Encoding: 3599 3599 50
Width: 690
VWidth: 0
Flags: W
HStem: -302 60<102.437 176.721> -162 60<102.932 177.257> -12 85<110.339 189.661> 492 120<234.213 389.652>
VStem: 20 85<78.3395 158.487> 40 60<-239.068 -164.932> 90 190<216.095 358.22> 195 85<79.2666 158.588> 235 100<-126.525 -60> 420 190<-142.682 458.65>
LayerCount: 2
Back
SplineSet
320 612 m 5xf240
 516 612 609 497 610 334 c 5
 610 -230 l 5
 610 -230 575 -288 470 -302 c 5
 380 -222 l 5
 294 -302 l 5
 240 -254 l 5
 215 -279 192 -302 140 -302 c 4
 88 -302 40 -257 40 -202 c 4
 40 -147 85 -102 140 -102 c 4
 172 -102 192 -110 222 -127 c 5
 230 -117 235 -98 235 -60 c 5
 335 -60 l 5xf4c0
 335 -111 303 -163 286 -181 c 5
 300 -192 l 5
 380 -110 l 5
 470 -197 l 5
 470 -197 420 -99 420 -32 c 6
 420 334 l 6
 420 417 413 492 320 492 c 4
 248 492 215 452 195 431 c 5
 300 379 l 5
 300 379 280 355 280 324 c 6xf240
 280 118 l 6
 280 46 222 -12 150 -12 c 4
 78 -12 20 46 20 118 c 4xf940
 20 168 48 212 90 233 c 5
 90 284 l 6
 90 312 102 355 135 374 c 5
 30 423 l 5
 107 544 190 610 320 612 c 5xf240
150 173 m 4
 120 173 95 148 95 118 c 4
 95 88 120 63 150 63 c 4
 180 63 205 88 205 118 c 4xf940
 205 148 180 173 150 173 c 4
140 -162 m 4
 118 -162 100 -180 100 -202 c 4xf440
 100 -224 118 -242 140 -242 c 4
 162 -242 180 -224 180 -202 c 4
 180 -180 162 -162 140 -162 c 4
EndSplineSet
Fore
SplineSet
320 612 m 1xf240
 516 612 609 497 610 334 c 1
 610 -230 l 1
 610 -230 575 -288 470 -302 c 1
 380 -222 l 1
 294 -302 l 1
 240 -254 l 1
 215 -279 192 -302 140 -302 c 0
 88 -302 40 -257 40 -202 c 0
 40 -147 85 -102 140 -102 c 0
 172 -102 192 -110 222 -127 c 1
 230 -117 235 -98 235 -60 c 1
 335 -60 l 1xf4c0
 335 -111 303 -163 286 -181 c 1
 300 -192 l 1
 380 -110 l 1
 470 -197 l 1
 470 -197 420 -99 420 -32 c 2
 420 334 l 2
 420 417 413 492 320 492 c 0
 248 492 215 452 195 431 c 1xf140
 300 379 l 1
 300 379 280 355 280 324 c 2xf240
 280 118 l 2
 280 46 222 -12 150 -12 c 0
 78 -12 20 46 20 118 c 0xf940
 20 168 48 212 90 233 c 1
 90 284 l 2
 90 312 102 355 135 374 c 1
 30 423 l 1
 107 544 190 610 320 612 c 1xf240
150 163 m 0
 125 163 105 143 105 118 c 0
 105 93 125 73 150 73 c 0
 175 73 195 93 195 118 c 0xf940
 195 143 175 163 150 163 c 0
140 -162 m 0
 118 -162 100 -180 100 -202 c 0xf440
 100 -224 118 -242 140 -242 c 0
 162 -242 180 -224 180 -202 c 0
 180 -180 162 -162 140 -162 c 0
EndSplineSet
Validated: 1
Substitution2: "Thai Descent Shorten" uni0E0F.short
EndChar

StartChar: uni0E10
Encoding: 3600 3600 51
Width: 610
VWidth: 0
Flags: W
HStem: -302 60<22.4375 96.7213> -162 60<22.9321 97.2571> -92 60<422.932 497.068> 94 65<149.488 230.15> 249 65<149.488 230.462> 492 120<236.738 425.272>
VStem: -40 60<-239.068 -164.932> 80 65<163.488 244.512> 155 100<-126.525 -60> 350 180<140.038 321.017> 360 60<-169.425 -94.9321> 500 60<-169.482 -94.9321>
LayerCount: 2
Fore
SplineSet
460 -32 m 0xffb0
 515 -32 560 -77 560 -132 c 0
 560 -225 500 -288 390 -302 c 1
 300 -222 l 1
 214 -302 l 1
 160 -254 l 1
 135 -279 112 -302 60 -302 c 0
 8 -302 -40 -257 -40 -202 c 0
 -40 -147 5 -102 60 -102 c 0
 92 -102 112 -110 142 -127 c 1
 150 -117 155 -98 155 -60 c 1
 255 -60 l 1
 255 -111 223 -163 206 -181 c 1
 220 -192 l 1
 300 -110 l 1
 372 -180 l 1
 364 -165 360 -149 360 -132 c 0
 360 -77 405 -32 460 -32 c 0xffb0
460 -92 m 0
 438 -92 420 -110 420 -132 c 0
 420 -154 438 -172 460 -172 c 0
 482 -172 500 -154 500 -132 c 0
 500 -110 482 -92 460 -92 c 0
60 -162 m 0
 38 -162 20 -180 20 -202 c 0
 20 -224 38 -242 60 -242 c 0
 82 -242 100 -224 100 -202 c 0
 100 -180 82 -162 60 -162 c 0
EndSplineSet
Refer: 3 63232 N 1 0 0 1 0 0 2
Validated: 1
Substitution2: "Thai Descent Remove" uni0E10.descless
EndChar

StartChar: uni0E11
Encoding: 3601 3601 52
Width: 740
VWidth: 0
Flags: W
HStem: 0 600<472.625 616.946> 287 65<93.3212 172.788> 442 65<93.3008 173.012>
VStem: 10 78<356.639 482.837> 130 190<0 215.896> 178 64<357.345 436.655> 470 190<0 399.993>
LayerCount: 2
Fore
SplineSet
125 612 m 1x76
 195 560 l 1
 265 612 l 1
 265 612 352 571 381 475 c 1
 426 540 486 600 540 600 c 0
 634 600 660 536 660 400 c 2
 660 0 l 1
 470 0 l 1
 470 370 l 2
 470 391 460 400 460 400 c 1
 352 262 320 209 320 0 c 1
 130 0 l 1
 130 176 l 2
 130 248 291 311 291 448 c 0
 291 524 258 546 258 546 c 1
 195 500 l 1
 130 546 l 1x9a
 130 546 101 528 93 500 c 1
 104 505 121 507 132 507 c 0
 193 507 242 460 242 397 c 0
 242 334 193 287 131 287 c 0
 69 287 10 327 10 420 c 0
 10 573 125 612 125 612 c 1x76
133 442 m 0x76
 109 442 88 422 88 397 c 0
 88 372 109 352 133 352 c 0
 158 352 178 372 178 397 c 0
 178 422 158 442 133 442 c 0x76
EndSplineSet
Validated: 1
EndChar

StartChar: uni0E12
Encoding: 3602 3602 53
Width: 1030
VWidth: 0
Flags: W
HStem: -12 75<514.489 606.114> 0 21G<90 278> 365 65<299.488 380.512>
VStem: 50 150<205.622 473.784> 230 65<279.735 360.512> 385 65<279.797 360.512> 430 75<72.4892 164.394> 470 180<234 482.604> 760 190<122.038 590>
LayerCount: 2
Fore
SplineSet
230 612 m 1x7c80
 345 544 l 1
 460 612 l 1
 616 570 649 461 650 340 c 1
 650 225 l 1x7d80
 716 195 762 155 780 122 c 1
 780 122 760 174 760 230 c 2
 760 590 l 1
 950 590 l 1
 950 40 l 1
 950 40 871 -12 770 -12 c 1
 770 -12 739 58 686 87 c 1
 672 30 621 -12 560 -12 c 0
 488 -12 430 46 430 118 c 0xba80
 430 162 452 200 485 224 c 1
 470 234 l 1
 470 390 l 2xb980
 470 458 460 488 430 504 c 1xba80
 345 454 l 1
 250 504 l 1
 203 457 200 427 200 340 c 0
 200 258 223 222 241 158 c 1
 257 176 282 202 297 219 c 1
 258 236 230 275 230 320 c 0
 230 381 279 430 340 430 c 0
 401 430 450 381 450 320 c 0
 450 168 296 134 260 0 c 1
 90 0 l 1
 90 188 50 206 50 340 c 1
 51 461 95 569 230 612 c 1x7c80
340 365 m 0
 315 365 295 345 295 320 c 0
 295 295 315 275 340 275 c 0
 365 275 385 295 385 320 c 0
 385 345 365 365 340 365 c 0
560 173 m 0
 530 173 505 148 505 118 c 0
 505 88 530 63 560 63 c 0xba80
 590 63 615 88 615 118 c 0
 615 148 590 173 560 173 c 0
EndSplineSet
Validated: 1
EndChar

StartChar: uni0E13
Encoding: 3603 3603 54
Width: 990
VWidth: 0
Flags: W
HStem: -12 85<160.339 239.661> -12 75<774.489 865.511> 492 120<234.213 389.652>
VStem: 70 190<216.095 339.278> 70 85<79.2666 158.588> 245 85<78.3395 158.487> 420 190<160 458.65> 690 75<73.2203 118> 720 190<234.533 590> 875 75<72.4892 163.616>
LayerCount: 2
Back
SplineSet
320 612 m 5xe4
 516 612 609 497 610 334 c 5
 610 150 l 5
 610 150 659 222 720 247 c 5
 720 590 l 5
 910 590 l 5
 910 230 l 5xe5
 895 224 l 5
 928 201 950 162 950 118 c 4
 950 46 892 -12 820 -12 c 4
 748 -12 690 46 690 118 c 5
 628 62 580 -6 580 -6 c 5
 436 -6 420 61 420 205 c 6
 420 334 l 6
 420 417 413 492 320 492 c 4
 248 492 215 452 195 431 c 5
 300 379 l 5
 300 379 260 355 260 324 c 6
 260 233 l 5xe680
 302 212 330 168 330 118 c 4
 330 46 272 -12 200 -12 c 4
 128 -12 70 46 70 118 c 6xdc
 70 284 l 6
 70 312 102 355 135 374 c 5
 30 423 l 5
 107 544 190 610 320 612 c 5xe4
200 173 m 4
 170 173 145 148 145 118 c 4
 145 88 170 63 200 63 c 4
 230 63 255 88 255 118 c 4xdc
 255 148 230 173 200 173 c 4
820 173 m 4
 790 173 765 148 765 118 c 4
 765 88 790 63 820 63 c 4
 850 63 875 88 875 118 c 4xc680
 875 148 850 173 820 173 c 4
EndSplineSet
Fore
SplineSet
320 612 m 1xb2
 516 612 609 497 610 334 c 1
 610 160 l 1
 610 160 659 222 720 247 c 1
 720 590 l 1
 910 590 l 1
 910 230 l 1xb280
 895 224 l 1
 928 201 950 162 950 118 c 0
 950 46 892 -12 820 -12 c 0
 748 -12 690 46 690 118 c 1
 628 62 580 -6 580 -6 c 1
 436 -6 420 61 420 205 c 2
 420 334 l 2
 420 417 413 492 320 492 c 0
 248 492 215 452 195 431 c 1
 300 379 l 1
 300 379 260 355 260 324 c 2
 260 233 l 1x7340
 302 212 330 168 330 118 c 0
 330 46 272 -12 200 -12 c 0
 128 -12 70 46 70 118 c 2xae
 70 284 l 2
 70 312 102 355 135 374 c 1
 30 423 l 1
 107 544 190 610 320 612 c 1xb2
820 173 m 0
 790 173 765 148 765 118 c 0
 765 88 790 63 820 63 c 0
 850 63 875 88 875 118 c 0x6340
 875 148 850 173 820 173 c 0
200 163 m 0
 175 163 155 143 155 118 c 0
 155 93 175 73 200 73 c 0
 225 73 245 93 245 118 c 0xae
 245 143 225 163 200 163 c 0
EndSplineSet
Validated: 1
EndChar

StartChar: uni0E14
Encoding: 3604 3604 55
Width: 730
VWidth: 0
Flags: W
HStem: 0 21G<90 288 470 650> 365 65<304.488 385.512> 492 120<264.627 422.696>
VStem: 50 150<223.272 426.764> 235 65<279.735 360.512> 390 65<279.797 360.512> 470 180<0 439.837>
LayerCount: 2
Fore
SplineSet
345 612 m 0
 541 612 649 497 650 334 c 1
 650 0 l 1
 470 0 l 1
 470 334 l 2
 470 417 438 492 345 492 c 0
 252 492 200 417 200 334 c 0
 201 259 232 224 252 150 c 1
 259 169 288 203 302 219 c 1
 263 236 235 275 235 320 c 0
 235 381 284 430 345 430 c 0
 406 430 455 381 455 320 c 0
 455 168 306 134 270 0 c 1
 90 0 l 1
 90 188 50 200 50 334 c 0
 51 497 149 612 345 612 c 0
345 365 m 0
 320 365 300 345 300 320 c 0
 300 295 320 275 345 275 c 0
 370 275 390 295 390 320 c 0
 390 345 370 365 345 365 c 0
EndSplineSet
Validated: 1
EndChar

StartChar: uni0E15
Encoding: 3605 3605 56
Width: 730
VWidth: 0
Flags: W
HStem: 0 21G<90 288 470 650> 365 65<304.488 385.512>
VStem: 50 150<248.352 478.176> 235 65<279.735 360.512> 390 65<279.797 360.512> 470 180<0 482.604>
LayerCount: 2
Fore
SplineSet
230 612 m 1
 345 538 l 1
 460 612 l 1
 616 570 649 461 650 340 c 1
 650 0 l 1
 470 0 l 1
 470 390 l 2
 470 458 460 488 430 504 c 1
 345 454 l 1
 250 504 l 1
 218 481 200 439 200 390 c 1
 202 297 233 240 253 153 c 1
 262 172 289 204 302 219 c 1
 263 236 235 275 235 320 c 0
 235 381 284 430 345 430 c 0
 406 430 455 381 455 320 c 0
 455 168 306 134 270 0 c 1
 90 0 l 1
 90 188 50 206 50 340 c 1
 51 461 95 569 230 612 c 1
345 365 m 0
 320 365 300 345 300 320 c 0
 300 295 320 275 345 275 c 0
 370 275 390 295 390 320 c 0
 390 345 370 365 345 365 c 0
EndSplineSet
Validated: 1
EndChar

StartChar: uni0E17
Encoding: 3607 3607 57
Width: 730
VWidth: 0
Flags: W
HStem: 0 600<462.016 606.946> 522 90<118.642 211.358>
VStem: 20 90<420.934 513.358> 120 190<0 162.603> 220 90<420.758 513.242> 460 190<0 399.993>
LayerCount: 2
Back
SplineSet
165 612 m 4x74
 245 612 310 547 310 467 c 6
 310 340 l 5x6c
 310 340 407 600 530 600 c 4
 604 600 650 536 650 400 c 6
 650 0 l 5
 460 0 l 5
 460 322 l 6
 460 369 470 430 470 430 c 5
 470 430 310 185 310 0 c 5
 120 0 l 5xb4
 120 329 l 5
 62 348 20 403 20 467 c 4
 20 547 85 612 165 612 c 4x74
165 522 m 4
 135 522 110 497 110 467 c 4
 110 437 135 412 165 412 c 4
 195 412 220 437 220 467 c 4
 220 497 195 522 165 522 c 4
EndSplineSet
Fore
SplineSet
165 612 m 0x74
 245 612 310 547 310 467 c 2
 310 360 l 1x6c
 338 439 441 600 530 600 c 0
 624 600 650 536 650 400 c 2
 650 0 l 1
 460 0 l 1
 460 370 l 2
 460 391 450 400 450 400 c 1
 352 248 310 118 310 0 c 1
 120 0 l 1xb4
 120 329 l 1
 62 348 20 403 20 467 c 0
 20 547 85 612 165 612 c 0x74
165 522 m 0
 135 522 110 497 110 467 c 0
 110 437 135 412 165 412 c 0
 195 412 220 437 220 467 c 0
 220 497 195 522 165 522 c 0
EndSplineSet
Validated: 1
EndChar

StartChar: uni0E18
Encoding: 3608 3608 58
Width: 630
VWidth: 0
Flags: W
HStem: -12 120<251.836 383.469> 492 120<246.738 435.272>
VStem: 50 190<123.803 280> 370 190<122.023 318.48>
LayerCount: 2
Fore
SplineSet
320 612 m 0
 408 612 471 571 500 540 c 1
 529 580 590 606 590 606 c 1
 590 480 l 1
 590 480 554 478 500 420 c 1
 444 476 374 492 320 492 c 0
 266 492 220 456 220 424 c 1
 395 404 560 386 560 284 c 2
 560 65 l 1
 560 65 508 -12 305 -12 c 0
 102 -12 50 48 50 165 c 2
 50 280 l 1
 240 280 l 1
 240 180 l 1
 241 124 272 108 315 108 c 0
 358 108 385 122 385 122 c 1
 385 122 370 153 370 210 c 2
 370 291 l 2
 370 356 115 354 30 364 c 1
 30 534 200 612 320 612 c 0
EndSplineSet
Validated: 1
EndChar

StartChar: uni0E1C
Encoding: 3612 3612 59
Width: 750
VWidth: 0
Flags: W
HStem: 522 90<148.642 241.358>
VStem: 50 190<114.789 340.44> 50 90<420.758 513.242> 250 90<420.934 513.358> 480 190<110.036 590>
LayerCount: 2
Fore
SplineSet
195 612 m 0xb8
 275 612 340 547 340 467 c 0
 340 403 298 348 240 329 c 1
 240 220 l 2
 240 156 230 110 230 110 c 1
 330 330 l 1
 390 330 l 1
 490 110 l 1
 490 110 480 159 480 220 c 2
 480 590 l 1
 670 590 l 1
 670 60 l 1
 670 60 595 -12 450 -12 c 1
 360 200 l 1
 270 -12 l 1
 111 -12 50 43 50 220 c 2xd8
 50 467 l 2
 50 547 115 612 195 612 c 0xb8
195 522 m 0
 165 522 140 497 140 467 c 0xb8
 140 437 165 412 195 412 c 0
 225 412 250 437 250 467 c 0
 250 497 225 522 195 522 c 0
EndSplineSet
Validated: 1
EndChar

StartChar: uni0E1E
Encoding: 3614 3614 60
Width: 800
VWidth: 0
Flags: W
HStem: 522 90<108.642 201.358>
VStem: 10 90<421.072 513.358> 120 180<116.232 335.099> 210 90<420.758 513.242> 540 180<110.091 590>
LayerCount: 2
Fore
SplineSet
155 612 m 0xe8
 235 612 300 547 300 467 c 2xd8
 300 280 l 2
 300 240 280 110 280 110 c 1
 385 540 l 1
 455 540 l 1
 560 110 l 1
 560 110 540 235 540 280 c 2
 540 590 l 1
 720 590 l 1
 720 60 l 1
 720 60 650 -12 505 -12 c 1
 420 360 l 1
 335 -12 l 1
 176 -12 120 16 120 220 c 2
 120 326 l 1
 57 342 10 399 10 467 c 0
 10 547 75 612 155 612 c 0xe8
155 522 m 0
 125 522 100 497 100 467 c 0
 100 437 125 412 155 412 c 0
 185 412 210 437 210 467 c 0
 210 497 185 522 155 522 c 0
EndSplineSet
Validated: 1
EndChar

StartChar: uni0E20
Encoding: 3616 3616 61
Width: 690
VWidth: 0
Flags: W
HStem: -12 85<110.339 189.661> 0 21G<420 610> 492 120<234.213 389.652>
VStem: 20 85<78.3395 158.487> 90 190<216.095 358.22> 195 85<79.2666 158.588> 420 190<0 458.65>
LayerCount: 2
Back
SplineSet
320 612 m 5xaa
 516 612 609 497 610 334 c 5
 610 0 l 5
 420 0 l 5
 420 334 l 6
 420 417 413 492 320 492 c 4
 248 492 215 452 195 431 c 5
 300 379 l 5
 300 379 280 355 280 324 c 6x6a
 280 118 l 6
 280 46 222 -12 150 -12 c 4
 78 -12 20 46 20 118 c 4xb6
 20 168 48 212 90 233 c 5
 90 284 l 6
 90 312 102 355 135 374 c 5
 30 423 l 5
 107 544 190 610 320 612 c 5xaa
150 173 m 4
 120 173 95 148 95 118 c 4
 95 88 120 63 150 63 c 4
 180 63 205 88 205 118 c 4xb6
 205 148 180 173 150 173 c 4
EndSplineSet
Fore
SplineSet
320 612 m 1xaa
 516 612 609 497 610 334 c 1
 610 0 l 1
 420 0 l 1
 420 334 l 2
 420 417 413 492 320 492 c 0
 248 492 215 452 195 431 c 1x66
 300 379 l 1
 300 379 280 355 280 324 c 2x6a
 280 118 l 2
 280 46 222 -12 150 -12 c 0
 78 -12 20 46 20 118 c 0xb6
 20 168 48 212 90 233 c 1
 90 284 l 2
 90 312 102 355 135 374 c 1
 30 423 l 1
 107 544 190 610 320 612 c 1xaa
150 163 m 0
 125 163 105 143 105 118 c 0
 105 93 125 73 150 73 c 0xb6
 175 73 195 93 195 118 c 0
 195 143 175 163 150 163 c 0
EndSplineSet
Validated: 1
EndChar

StartChar: uni0E22
Encoding: 3618 3618 62
Width: 680
VWidth: 0
Flags: W
HStem: -12 120<245.316 419.051> 352 75<200 244.042> 537 75<154.512 245.169>
VStem: 40 190<123.251 223.206> 40 105<435.621 527.889> 255 75<436.012 527.554> 410 190<135.023 590>
LayerCount: 2
Fore
SplineSet
200 612 m 0xee
 278 612 330 547 330 482 c 0
 330 399 263 355 200 352 c 1
 204 349 214 347 229 347 c 0
 249 347 266.379 348.793 300 360 c 2
 360 380 l 1
 360 258 l 1
 300 242 l 2
 258.374 230.899 230 216 230 170 c 1
 230 116 288 108 330 108 c 0
 397 108 420 135 420 135 c 1
 420 135 410 167 410 220 c 2
 410 590 l 1
 600 590 l 1
 600 80 l 1
 600 80 521 -12 330 -12 c 0
 139 -12 40 51 40 170 c 4xf6
 40 227 89 285 130 305 c 1
 95 331 40 377 40 462 c 0
 40 546 109 612 200 612 c 0xee
200 537 m 0
 170 537 145 512 145 482 c 0xee
 145 452 170 427 200 427 c 0
 230 427 255 452 255 482 c 0
 255 512 230 537 200 537 c 0
EndSplineSet
Validated: 1
EndChar

StartChar: uni0E24
Encoding: 3620 3620 63
Width: 690
VWidth: 0
Flags: W
HStem: -12 85<160.339 239.661> 492 120<234.213 389.652>
VStem: 70 190<216.095 339.278> 70 85<79.2666 158.588> 245 85<78.3395 158.487> 420 190<-260 458.65>
LayerCount: 2
Fore
SplineSet
320 612 m 1xe4
 516 612 609 497 610 334 c 1
 610 -260 l 1
 420 -260 l 1
 420 334 l 2
 420 417 413 492 320 492 c 0
 248 492 215 452 195 431 c 1
 300 379 l 1
 300 379 260 355 260 324 c 2
 260 233 l 1xe4
 302 212 330 168 330 118 c 0
 330 46 272 -12 200 -12 c 0
 128 -12 70 46 70 118 c 2xdc
 70 284 l 2
 70 312 102 355 135 374 c 1
 30 423 l 1
 107 544 190 610 320 612 c 1xe4
200 163 m 0
 175 163 155 143 155 118 c 0
 155 93 175 73 200 73 c 0
 225 73 245 93 245 118 c 0xdc
 245 143 225 163 200 163 c 0
EndSplineSet
Validated: 1
EndChar

StartChar: uni0E25
Encoding: 3621 3621 64
Width: 650
VWidth: 0
Flags: W
HStem: -12 85<149.878 229.661> 0 21G<390 441.5> 280 100<246.955 363.476> 492 120<156.579 377.263>
VStem: 50 95<79.2666 158.588> 235 85<78.3395 158.794> 390 190<27.646 253.44> 408 172<323.811 461.377>
LayerCount: 2
Back
SplineSet
290 615 m 4xfa
 451 615 590 555 590 344 c 6xfa
 590 30 l 5
 590 30 503 -9 400 -9 c 5xfc
 400 3 l 4
 400 194 399 280 306 280 c 4
 284 280 250 261 250 238 c 5
 297 218 330 172 330 118 c 4
 330 46 272 -12 200 -12 c 4
 128 -12 60 46 60 118 c 6
 60 210 l 6
 60 284 119 400 266 400 c 4
 399 400 420 285 420 285 c 5
 429 311 435 335 435 360 c 4
 435 457 364 495 285 495 c 4
 202 495 119 459 50 405 c 5
 50 525 l 5
 98 565 195 615 290 615 c 4xfa
200 173 m 4
 170 173 145 148 145 118 c 4
 145 88 170 63 200 63 c 4
 230 63 255 88 255 118 c 4
 255 148 230 173 200 173 c 4
EndSplineSet
Fore
SplineSet
280 612 m 0xbd
 441 612 580 555 580 344 c 2xbd
 580 30 l 1
 580 30 493 0 390 0 c 1
 390 162 l 2x7e
 390 210 381 280 296 280 c 0
 274 280 240 261 240 238 c 1
 287 218 320 172 320 118 c 0
 320 46 262 -12 190 -12 c 0
 118 -12 50 46 50 118 c 2
 50 210 l 2
 50 284 123 380 261 380 c 0
 349 380 371 359 403 323 c 1
 405 340 408 376 408 391 c 4
 408 448 388 492 275 492 c 0
 192 492 94 464 50 395 c 1
 50 515 l 1
 83 560 185 612 280 612 c 0xbd
190 163 m 0
 165 163 145 143 145 118 c 0
 145 93 165 73 190 73 c 0
 215 73 235 93 235 118 c 0
 235 143 215 163 190 163 c 0
EndSplineSet
Validated: 1
EndChar

StartChar: uni0E26
Encoding: 3622 3622 65
Width: 690
VWidth: 0
Flags: W
HStem: -12 85<110.339 189.661> 492 120<234.213 389.652>
VStem: 20 85<78.3395 158.487> 90 190<216.095 358.22> 195 85<79.2666 158.588> 420 190<-260 458.65>
LayerCount: 2
Fore
SplineSet
320 612 m 1xd4
 516 612 609 497 610 334 c 1
 610 -260 l 1
 420 -260 l 1
 420 334 l 2
 420 417 413 492 320 492 c 0
 248 492 215 452 195 431 c 1xcc
 300 379 l 1
 300 379 280 355 280 324 c 2xd4
 280 118 l 2
 280 46 222 -12 150 -12 c 0
 78 -12 20 46 20 118 c 0xec
 20 168 48 212 90 233 c 1
 90 284 l 2
 90 312 102 355 135 374 c 1
 30 423 l 1
 107 544 190 610 320 612 c 1xd4
150 163 m 0
 125 163 105 143 105 118 c 0xec
 105 93 125 73 150 73 c 0
 175 73 195 93 195 118 c 0
 195 143 175 163 150 163 c 0
EndSplineSet
Validated: 1
EndChar

StartChar: uni0E28
Encoding: 3624 3624 66
Width: 710
VWidth: 0
Flags: W
HStem: 0 21G<70 242.222 450 630> 210 65<274.361 355.512> 365 65<274.818 355.456> 492 120<230.85 402.678> 496 164<591.222 680>
VStem: 30 140<241.964 432.415> 70 170<0 211.112> 360 65<279.488 360.512> 450 180<0 440.603>
LayerCount: 2
Fore
SplineSet
680 660 m 1xed80
 680 496 l 1xed80
 646 496 616 492 590 485 c 1
 616 443 630 391 630 334 c 2
 630 0 l 1
 450 0 l 1
 450 334 l 2
 450 417 418 492 325 492 c 0
 232 492 170 442 170 334 c 0xf580
 170 285 176 254 178 240 c 1
 198 367 245 430 315 430 c 0
 382 430 425 381 425 320 c 0
 425 259 376 210 315 210 c 0
 283 210 265 225 265 225 c 1
 246 208 240 0 240 0 c 1
 70 0 l 1xf380
 70 188 30 200 30 334 c 0
 31 497 129 612 325 612 c 0xf580
 386 612 438 601 481 581 c 1
 525 621 594 660 680 660 c 1xed80
315 365 m 0
 290 365 270 345 270 320 c 0
 270 295 290 275 315 275 c 0
 340 275 360 295 360 320 c 0
 360 345 340 365 315 365 c 0
EndSplineSet
Validated: 1
EndChar

StartChar: uni0E29
Encoding: 3625 3625 67
Width: 770
VWidth: 0
Flags: W
HStem: -12 120<353.188 517.449> 254 61<386.71 473> 385 45<388.203 452.391> 512 100<121.832 218.168>
VStem: 10 100<403.092 500.168> 140 190<131.501 301.374> 230 100<403.108 499.443> 340 45<317.626 381.797> 500 190<134.027 256 421 590>
LayerCount: 2
Fore
SplineSet
170 612 m 0xfd80
 258 612 330 540 330 452 c 2xfb80
 330 205 l 2
 330 142 361 108 415 108 c 0
 469 108 520 134 520 134 c 1
 520 134 500 171 500 220 c 2
 500 256 l 1
 489 255 478 254 468 254 c 0
 451 254 434 256 416 262 c 0
 372 275 340 306 340 350 c 0
 340 394 376 430 420 430 c 0
 461 430 494 400 499 361 c 1
 500 361 l 2
 500 590 l 1
 690 590 l 1
 690 421 l 1
 731 452 770 520 770 520 c 1
 770 370 l 1
 770 370 736 328 690 299 c 1
 690 80 l 1
 690 80 623 -12 410 -12 c 0
 197 -12 140 61 140 205 c 2
 140 295 l 1
 66 309 10 374 10 452 c 0
 10 540 82 612 170 612 c 0xfd80
170 512 m 0
 137 512 110 485 110 452 c 0
 110 419 137 392 170 392 c 0
 203 392 230 419 230 452 c 0
 230 485 203 512 170 512 c 0
420 385 m 0
 401 385 385 369 385 350 c 0
 385 331 401 315 420 315 c 0
 439 315 455 331 455 350 c 0
 455 369 439 385 420 385 c 0
EndSplineSet
Validated: 1
EndChar

StartChar: uni0E2A
Encoding: 3626 3626 68
Width: 660
VWidth: 0
Flags: W
HStem: -12 85<149.878 229.661> 0 21G<390 441.5> 280 100<246.955 363.476> 492 120<156.579 379.288> 496 164<552.07 630>
VStem: 50 95<79.2666 158.588> 235 85<78.3395 158.794> 390 190<27.646 253.44> 408 172<323.811 463.705>
LayerCount: 2
Back
SplineSet
640 660 m 5xdd
 640 500 l 5
 615 500 574 499 555 496 c 5
 577 457 590 408 590 344 c 6xdd
 590 30 l 5
 590 30 503 -9 400 -9 c 5
 400 3 l 4xde
 400 194 399 280 306 280 c 4
 284 280 250 261 250 238 c 5
 297 218 330 172 330 118 c 4
 330 46 272 -12 200 -12 c 4
 128 -12 60 46 60 118 c 6
 60 210 l 6
 60 284 119 400 266 400 c 4
 399 400 420 285 420 285 c 5
 429 311 435 335 435 360 c 4
 435 457 364 495 285 495 c 4
 202 495 119 459 50 405 c 5
 50 525 l 5
 98 565 195 615 290 615 c 4xed
 349 615 405 607 452 586 c 5
 499 628 578 660 640 660 c 5xdd
200 173 m 4
 170 173 145 148 145 118 c 4
 145 88 170 63 200 63 c 4
 230 63 255 88 255 118 c 4
 255 148 230 173 200 173 c 4
EndSplineSet
Fore
SplineSet
630 660 m 1x2e80
 630 496 l 1
 601 496 574 493 550 488 c 1
 569 450 580 403 580 344 c 2x2e80
 580 30 l 1
 580 30 493 0 390 0 c 1
 390 162 l 2x6f
 390 210 381 280 296 280 c 0
 274 280 240 261 240 238 c 1
 287 218 320 172 320 118 c 0
 320 46 262 -12 190 -12 c 0
 118 -12 50 46 50 118 c 2
 50 210 l 2
 50 284 123 380 261 380 c 0
 349 380 371 359 403 323 c 1
 405 340 408 376 408 391 c 4
 408 448 388 492 275 492 c 0
 192 492 94 464 50 395 c 1
 50 515 l 1
 83 560 185 612 280 612 c 0xb680
 338 612 392 607 439 588 c 1
 483 625 549 660 630 660 c 1x2e80
190 163 m 0
 165 163 145 143 145 118 c 0
 145 93 165 73 190 73 c 0xa6
 215 73 235 93 235 118 c 0
 235 143 215 163 190 163 c 0
EndSplineSet
Validated: 1
EndChar

StartChar: uni0E2C
Encoding: 3628 3628 69
Width: 850
VWidth: 0
Flags: W
HStem: 522 90<108.642 201.358> 585 75<594.489 685.566>
VStem: 10 90<421.072 513.358> 120 180<122.837 335.099> 210 90<420.758 513.242> 510 75<484.205 575.511> 560 180<120.076 423.473> 695 155<483.758 554.873>
LayerCount: 2
Fore
SplineSet
155 612 m 0xb2
 235 612 300 547 300 467 c 2xa8
 300 270 l 2
 300 230 280 120 280 120 c 1
 390 540 l 1
 470 540 l 1
 580 120 l 1
 580 120 560 225 560 270 c 2
 560 420 l 1xb2
 528 444 510 483 510 530 c 0
 510 602 568 660 640 660 c 0
 703 660 756 615 768 555 c 1
 800 564 850 598 850 598 c 1
 850 468 l 1x65
 814 447 778 427 740 414 c 1
 740 60 l 1
 740 60 665 -12 520 -12 c 1
 430 360 l 1
 340 -12 l 1
 181 -12 120 16 120 220 c 2
 120 326 l 1
 57 342 10 399 10 467 c 0
 10 547 75 612 155 612 c 0xb2
640 585 m 0x65
 610 585 585 560 585 530 c 0
 585 500 610 475 640 475 c 0
 670 475 695 500 695 530 c 0
 695 560 670 585 640 585 c 0x65
155 522 m 0xa8
 125 522 100 497 100 467 c 0
 100 437 125 412 155 412 c 0
 185 412 210 437 210 467 c 0
 210 497 185 522 155 522 c 0xa8
EndSplineSet
Validated: 1
EndChar

StartChar: uni0E2D
Encoding: 3629 3629 70
Width: 660
VWidth: 0
Flags: W
HStem: -12 110<250.854 413.021> 353 90<158.642 251.358> 505 110<159.47 382.035>
VStem: 60 90<251.758 344.242> 260 90<251.803 344.358> 410 180<134.023 475.359>
LayerCount: 2
Back
SplineSet
310 615 m 4
 471 615 610 558 610 347 c 6
 610 120 l 5
 610 120 547 -15 340 -15 c 4
 133 -15 70 77 70 170 c 6
 70 291 l 6
 70 371 135 436 215 436 c 4
 295 436 360 371 360 291 c 4
 360 222 312 165 248 150 c 5
 248 102 292 95 340 95 c 4
 378 95 403 107 420 120 c 5
 420 321 l 6
 420 413 406 495 310 495 c 4
 239 495 150 479 60 420 c 5
 60 540 l 5
 108 577 220 615 310 615 c 4
215 346 m 4
 185 346 160 321 160 291 c 4
 160 261 185 236 215 236 c 4
 245 236 270 261 270 291 c 4
 270 321 245 346 215 346 c 4
EndSplineSet
Fore
SplineSet
295 615 m 0
 456 615 590 555 590 344 c 2
 590 117 l 1
 590 117 532 -12 325 -12 c 0
 118 -12 60 84 60 177 c 2
 60 298 l 2
 60 378 125 443 205 443 c 0
 285 443 350 378 350 298 c 0
 350 229 302 172 238 157 c 1
 238 109 277 98 325 98 c 0
 363 98 413 121 430 134 c 1
 430 134 410 166 410 220 c 2
 410 363 l 2
 410 452 401 505 295 505 c 0
 224 505 130 481 50 417 c 1
 50 537 l 1
 104 580 205 615 295 615 c 0
205 353 m 0
 175 353 150 328 150 298 c 0
 150 268 175 243 205 243 c 0
 235 243 260 268 260 298 c 0
 260 328 235 353 205 353 c 0
EndSplineSet
Validated: 1
EndChar

StartChar: uni0E2E
Encoding: 3630 3630 71
Width: 670
VWidth: 0
Flags: W
HStem: -12 110<250.854 413.021> 353 90<158.642 251.358> 505 110<159.47 382.459>
VStem: 60 90<251.758 344.242> 260 90<251.803 344.358> 410 180<134.023 476.967>
LayerCount: 2
Fore
SplineSet
620 660 m 1
 620 500 l 1
 595 500 574 499 555 496 c 1
 577 457 590 408 590 344 c 2
 590 117 l 1
 590 117 532 -12 325 -12 c 0
 118 -12 60 84 60 177 c 2
 60 298 l 2
 60 378 125 443 205 443 c 0
 285 443 350 378 350 298 c 0
 350 229 302 172 238 157 c 1
 238 109 277 98 325 98 c 0
 363 98 413 121 430 134 c 1
 430 134 410 166 410 220 c 2
 410 363 l 2
 410 452 401 505 295 505 c 0
 224 505 130 481 50 417 c 1
 50 537 l 1
 104 580 205 615 295 615 c 0
 354 615 405 607 452 586 c 1
 499 628 558 660 620 660 c 1
205 353 m 0
 175 353 150 328 150 298 c 0
 150 268 175 243 205 243 c 0
 235 243 260 268 260 298 c 0
 260 328 235 353 205 353 c 0
EndSplineSet
Validated: 1
EndChar

StartChar: uni0E2F
Encoding: 3631 3631 72
Width: 610
VWidth: 0
Flags: W
HStem: -12 100<235 328.198> 323 107<205 304.014> 530 65<69.4878 150.512>
VStem: 0 65<445.148 525.512> 155 65<444.29 525.512> 350 180<108 368.499> 400 130<509.734 570>
LayerCount: 2
Fore
SplineSet
110 595 m 0xfc
 171 595 220 546 220 485 c 0
 220 465 215 446 205 430 c 1
 279 430 385 479 400 570 c 1
 530 570 l 1xfa
 530 108 l 1
 530 108 456 -12 205 -12 c 1
 235 88 l 1
 318 88 350 128 350 128 c 1
 350 278 l 2
 350 279 350 281 350 282 c 0
 350 334 395 403 395 403 c 1
 395 403 329 323 205 323 c 0
 103 323 0 373 0 485 c 0
 0 546 49 595 110 595 c 0xfc
110 530 m 0
 85 530 65 510 65 485 c 0
 65 460 85 440 110 440 c 0
 135 440 155 460 155 485 c 0
 155 510 135 530 110 530 c 0
EndSplineSet
Validated: 1
EndChar

StartChar: uni0E30
Encoding: 3632 3632 73
Width: 620
VWidth: 0
Flags: W
HStem: 20 99<253 332.347> 230 70<106.241 193.865> 330 99<253 332.347> 540 70<106.241 193.865>
VStem: 30 70<136.57 223.445 446.57 533.445> 200 70<136.617 223.674 446.617 533.674> 416 144<204.193 280 514.193 590>
LayerCount: 2
Fore
SplineSet
150 610 m 0
 216 610 270 556 270 490 c 0
 270 468 264 447 253 429 c 1
 339 429 416 518 416 590 c 1
 560 590 l 1
 560 466 421 330 270 330 c 0
 149 330 30 370 30 495 c 0
 30 561 85 610 150 610 c 0
150 540 m 0
 122 540 100 518 100 490 c 0
 100 462 122 440 150 440 c 0
 177 440 200 462 200 490 c 0
 200 518 177 540 150 540 c 0
150 300 m 0
 216 300 270 246 270 180 c 0
 270 158 264 137 253 119 c 1
 339 119 416 208 416 280 c 1
 560 280 l 1
 560 156 421 20 270 20 c 0
 149 20 30 60 30 185 c 0
 30 251 85 300 150 300 c 0
150 230 m 0
 122 230 100 208 100 180 c 0
 100 152 122 130 150 130 c 0
 177 130 200 152 200 180 c 0
 200 208 177 230 150 230 c 0
EndSplineSet
Validated: 1
EndChar

StartChar: uni0E3F
Encoding: 3647 3647 74
Width: 830
VWidth: 0
Flags: W
HStem: 0 160<280 340 440 506.404> 380 132<280 340>
VStem: 80 200<160 380 512 710> 340 100<-150 0 160 380 518 705 860 1010> 510 200<546.424 679.46> 550 200<201.348 343.701>
LayerCount: 2
Back
SplineSet
80 0 m 5
 80 860 l 5
 400 860 l 6
 621 860 710 758 710 611 c 4
 710 555 681 494 610 452 c 5
 724 413 750 321 750 241 c 4
 750 66 637 0 500 0 c 6
 80 0 l 5
280 380 m 5
 280 160 l 5
 430 160 l 6
 509 160 550 219 550 272 c 4
 550 325 514 380 430 380 c 6
 280 380 l 5
280 512 m 5
 400 512 l 6
 475 512 510 565 510 611 c 4
 510 657 483 710 400 710 c 6
 280 710 l 5
 280 512 l 5
EndSplineSet
Fore
SplineSet
340 1010 m 1xf4
 440 1010 l 1
 440 859 l 1
 632 847 710 749 710 611 c 0xf8
 710 555 681 494 610 452 c 1
 724 413 750 321 750 241 c 0
 750 66 637 0 500 0 c 2
 440 0 l 1
 440 -150 l 1
 340 -150 l 1
 340 0 l 1
 80 0 l 1
 80 860 l 1
 340 860 l 1
 340 1010 l 1xf4
280 710 m 1
 280 512 l 1
 340 512 l 1
 340 710 l 1
 280 710 l 1
440 705 m 1
 440 518 l 1
 488 533 510 574 510 611 c 0
 510 649 492 691 440 705 c 1
280 380 m 1
 280 160 l 1
 340 160 l 1
 340 380 l 1
 280 380 l 1
440 380 m 1
 440 160 l 1
 512 165 550 221 550 272 c 0xf4
 550 323 517 376 440 380 c 1
EndSplineSet
Validated: 1
EndChar

StartChar: uni0E42
Encoding: 3650 3650 75
Width: 350
VWidth: 0
Flags: W
HStem: -12 85<160.339 239.661> 890 122<324.413 395> 922 110<95.4734 245.985>
VStem: 70 190<216.095 719.76> 70 85<79.2666 158.588> 245 85<78.3395 158.487>
LayerCount: 2
Back
SplineSet
165 1032 m 4xb0
 235 1032 276 1002 304 970 c 5
 321 989 365 1012 395 1012 c 5
 395 890 l 5xd0
 364 887 301 865 285 845 c 5
 265 879 241 922 165 922 c 4
 123 922 99 901 80 882 c 5
 139 849 260 797 260 560 c 6
 260 233 l 5xb0
 302 212 330 168 330 118 c 4
 330 46 272 -12 200 -12 c 4
 128 -12 70 46 70 118 c 6xac
 70 629 l 6
 70 733 61 832 -50 832 c 5
 -50 939 45 1032 165 1032 c 4xb0
200 173 m 4
 170 173 145 148 145 118 c 4
 145 88 170 63 200 63 c 4
 230 63 255 88 255 118 c 4x8c
 255 148 230 173 200 173 c 4
EndSplineSet
Fore
SplineSet
165 1032 m 0xb0
 235 1032 276 1002 304 970 c 1
 321 989 365 1012 395 1012 c 1
 395 890 l 1xd0
 364 887 301 865 285 845 c 1
 265 879 241 922 165 922 c 0
 123 922 99 901 80 882 c 1
 139 849 260 797 260 560 c 2
 260 233 l 1xb0
 302 212 330 168 330 118 c 0
 330 46 272 -12 200 -12 c 0
 128 -12 70 46 70 118 c 2xac
 70 629 l 2
 70 733 61 832 -50 832 c 1
 -50 939 45 1032 165 1032 c 0xb0
200 163 m 0
 175 163 155 143 155 118 c 0
 155 93 175 73 200 73 c 0
 225 73 245 93 245 118 c 0x8c
 245 143 225 163 200 163 c 0
EndSplineSet
Validated: 1
EndChar

StartChar: uni0E43
Encoding: 3651 3651 76
Width: 350
VWidth: 0
Flags: W
HStem: -12 85<160.339 239.661> 727 70<33.3212 112.788> 887 65<72 112.437> 968 64<73.4836 191.472>
VStem: -50 78<802.808 881.571> 70 190<216.095 596.896> 70 85<79.2666 158.588> 118 64<802.038 881.655> 221 109<778.436 939.667> 245 85<78.3395 158.487>
LayerCount: 2
Back
SplineSet
130 1032 m 4xf980
 270 1032 330 939 330 830 c 4xf980
 330 721 260 700 260 490 c 6
 260 233 l 5xfc
 302 212 330 168 330 118 c 4
 330 46 272 -12 200 -12 c 4
 128 -12 70 46 70 118 c 6xfa40
 70 490 l 6xfc
 70 633 221 757 221 868 c 4
 221 922 191 968 125 968 c 4
 105 968 84 962 72 952 c 5
 133 952 182 905 182 842 c 4
 182 779 133 727 71 727 c 4
 9 727 -50 772 -50 865 c 4
 -50 948 25 1032 130 1032 c 4xf980
73 887 m 4
 49 887 28 867 28 842 c 4
 28 817 49 797 73 797 c 4
 98 797 118 817 118 842 c 4
 118 867 98 887 73 887 c 4
200 173 m 4
 170 173 145 148 145 118 c 4
 145 88 170 63 200 63 c 4
 230 63 255 88 255 118 c 4xfa40
 255 148 230 173 200 173 c 4
EndSplineSet
Fore
SplineSet
130 1032 m 0xf980
 270 1032 330 939 330 830 c 0xf980
 330 721 260 700 260 490 c 2
 260 233 l 1xfc
 302 212 330 168 330 118 c 0
 330 46 272 -12 200 -12 c 0
 128 -12 70 46 70 118 c 2xfa40
 70 490 l 2xfc
 70 633 221 757 221 868 c 0
 221 922 191 968 125 968 c 0
 105 968 84 962 72 952 c 1
 133 952 182 905 182 842 c 0
 182 779 133 727 71 727 c 0
 9 727 -50 772 -50 865 c 0
 -50 948 25 1032 130 1032 c 0xf980
73 887 m 0
 49 887 28 867 28 842 c 0
 28 817 49 797 73 797 c 0
 98 797 118 817 118 842 c 0
 118 867 98 887 73 887 c 0
200 163 m 0
 175 163 155 143 155 118 c 0
 155 93 175 73 200 73 c 0
 225 73 245 93 245 118 c 0xfa40
 245 143 225 163 200 163 c 0
EndSplineSet
Validated: 1
EndChar

StartChar: uni0E44
Encoding: 3652 3652 77
Width: 350
VWidth: 0
Flags: W
HStem: -12 85<160.339 239.661>
VStem: 70 190<216.095 599.474> 70 85<79.2666 158.588> 245 105<814.935 900> 245 85<78.3395 158.487>
LayerCount: 2
Back
SplineSet
-50 1030 m 5x90
 64 998 100 910 100 910 c 5
 240 1030 l 5
 307 1030 350 977 350 930 c 4x90
 350 765 260 699 260 490 c 6
 260 233 l 5xc0
 302 212 330 168 330 118 c 4
 330 46 272 -12 200 -12 c 4
 128 -12 70 46 70 118 c 6xa8
 70 490 l 5xc0
 77 670 245 785 245 900 c 5
 90 771 l 5
 90 771 45 881 -50 881 c 5
 -50 1030 l 5x90
200 173 m 4
 170 173 145 148 145 118 c 4
 145 88 170 63 200 63 c 4
 230 63 255 88 255 118 c 4xa8
 255 148 230 173 200 173 c 4
EndSplineSet
Fore
SplineSet
-40 1040 m 5x90
 74 1008 129 910 129 910 c 1
 240 1030 l 1
 307 1030 350 977 350 930 c 0x90
 350 765 260 699 260 490 c 2
 260 233 l 1xc0
 302 212 330 168 330 118 c 0
 330 46 272 -12 200 -12 c 0
 128 -12 70 46 70 118 c 2xa8
 70 490 l 1xc0
 77 670 245 785 245 900 c 1
 119 771 l 1
 119 771 55 891 -40 891 c 5
 -40 1040 l 5x90
200 163 m 0
 175 163 155 143 155 118 c 0
 155 93 175 73 200 73 c 0
 225 73 245 93 245 118 c 0xa8
 245 143 225 163 200 163 c 0
EndSplineSet
Validated: 1
EndChar

StartChar: uni0E45
Encoding: 3653 3653 78
Width: 340
VWidth: 0
Flags: W
HStem: 492 120<-138.023 38.5421>
VStem: 70 190<-260 457.321>
LayerCount: 2
Fore
SplineSet
70 -260 m 1
 70 350 l 1
 68 450 38 492 -15 492 c 0
 -102 492 -142 473 -210 420 c 1
 -210 540 l 1
 -165 575 -111 612 -15 612 c 0
 177 612 260 522 260 350 c 2
 260 -260 l 1
 70 -260 l 1
EndSplineSet
Validated: 1
EndChar

StartChar: uni0E46
Encoding: 3654 3654 79
Width: 760
VWidth: 0
Flags: W
HStem: 210 75<174.489 265.511> 395 75<220 264.78>
VStem: 90 75<294.489 382.364> 275 75<294.489 385.511> 370 190<-260 209.722> 470 140<289.446 467.612>
LayerCount: 2
Fore
SplineSet
253 612 m 1xf4
 342 540 l 1
 431 612 l 1
 543 558 608 460 610 369 c 1xf4
 610 284 560 231 560 120 c 2
 560 -260 l 1
 370 -260 l 1
 370 120 l 2xf8
 370 223 470 282 470 369 c 0
 470 472 422 520 422 520 c 1
 342 455 l 1
 260 520 l 1
 239 514 220 488 220 470 c 1
 292 470 350 412 350 340 c 0
 350 268 292 210 220 210 c 0
 148 210 90 268 90 340 c 0
 90 555 253 612 253 612 c 1xf4
220 395 m 0
 190 395 165 370 165 340 c 0
 165 310 190 285 220 285 c 0
 250 285 275 310 275 340 c 0
 275 370 250 395 220 395 c 0
EndSplineSet
Validated: 1
EndChar

StartChar: uni0E4F
Encoding: 3663 3663 80
Width: 760
VWidth: 0
Flags: W
HStem: 0 90<281.776 478.224> 170 75<334.489 425.511> 355 75<334.489 425.511> 510 90<281.776 478.224>
VStem: 80 90<201.776 398.224> 250 75<254.489 345.511> 435 75<254.489 345.511> 590 90<201.776 398.224>
LayerCount: 2
Back
SplineSet
380 600 m 4
 546 600 680 466 680 300 c 4
 680 134 546 0 380 0 c 4
 214 0 80 134 80 300 c 4
 80 466 214 600 380 600 c 4
380 500 m 4
 270 500 180 410 180 300 c 4
 180 190 270 100 380 100 c 4
 490 100 580 190 580 300 c 4
 580 410 490 500 380 500 c 4
380 430 m 4
 452 430 510 372 510 300 c 4
 510 228 452 170 380 170 c 4
 308 170 250 228 250 300 c 4
 250 372 308 430 380 430 c 4
380 355 m 4
 350 355 325 330 325 300 c 4
 325 270 350 245 380 245 c 4
 410 245 435 270 435 300 c 4
 435 330 410 355 380 355 c 4
EndSplineSet
Fore
SplineSet
380 600 m 4
 546 600 680 466 680 300 c 4
 680 134 546 0 380 0 c 4
 214 0 80 134 80 300 c 4
 80 466 214 600 380 600 c 4
380 510 m 4
 264 510 170 416 170 300 c 4
 170 184 264 90 380 90 c 4
 496 90 590 184 590 300 c 4
 590 416 496 510 380 510 c 4
380 430 m 4
 452 430 510 372 510 300 c 4
 510 228 452 170 380 170 c 4
 308 170 250 228 250 300 c 4
 250 372 308 430 380 430 c 4
380 355 m 4
 350 355 325 330 325 300 c 4
 325 270 350 245 380 245 c 4
 410 245 435 270 435 300 c 4
 435 330 410 355 380 355 c 4
EndSplineSet
Validated: 1
EndChar

StartChar: uni0E50
Encoding: 3664 3664 81
Width: 1044
VWidth: 0
Flags: W
HStem: -12 160<423.108 620.892> 712 160<423.108 620.892>
VStem: 80 210<300.055 559.945> 754 210<300.055 559.945>
LayerCount: 2
Back
SplineSet
510 872 m 4
 754 872 952 674 952 430 c 4
 952 186 754 -12 510 -12 c 4
 266 -12 68 186 68 430 c 4
 68 674 266 872 510 872 c 4
510 712 m 4
 371 712 258 586 258 430 c 4
 258 274 371 148 510 148 c 4
 649 148 762 274 762 430 c 4
 762 586 649 712 510 712 c 4
EndSplineSet
Fore
SplineSet
522 872 m 0
 766 872 964 674 964 430 c 0
 964 186 766 -12 522 -12 c 0
 278 -12 80 186 80 430 c 0
 80 674 278 872 522 872 c 0
522 712 m 0
 388 712 290 586 290 430 c 0
 290 274 388 148 522 148 c 0
 656 148 754 274 754 430 c 0
 754 586 656 712 522 712 c 0
EndSplineSet
Validated: 1
EndChar

StartChar: uni0E51
Encoding: 3665 3665 82
Width: 1044
VWidth: 0
Flags: W
HStem: -72 176<522 608.69> 140 160<323.549 413.448> 490 100<473.832 570.168> 702 170<411.625 624.427>
VStem: 80 200<348.739 567.99> 362 100<381.378 478.168> 582 100<381.599 478.168> 764 200<277.754 552.825>
LayerCount: 2
Back
SplineSet
500 872 m 4
 744 872 942 674 942 430 c 4
 942 186 744 -12 500 -12 c 5
 500 148 l 5
 634 148 742 274 742 430 c 4
 742 586 634 712 500 712 c 4
 366 712 258 586 258 430 c 5
 258 430 264 300 359 300 c 4
 373 300 386 303 396 308 c 5
 362 337 340 381 340 430 c 4
 340 518 412 590 500 590 c 4
 588 590 660 518 660 430 c 4
 660 310 588 150 359 150 c 4
 83 150 58 374 58 430 c 4
 58 674 256 872 500 872 c 4
500 490 m 4
 467 490 440 463 440 430 c 4
 440 397 467 370 500 370 c 4
 533 370 560 397 560 430 c 4
 560 463 533 490 500 490 c 4
EndSplineSet
Fore
SplineSet
522 872 m 0
 766 872 964 686 964 430 c 0
 964 201 850 -72 522 -72 c 1
 522 104 l 1
 691 118 764 268 764 430 c 0
 764 586 656 702 522 702 c 0
 388 702 280 606 280 450 c 0
 280 379 313 300 381 300 c 0
 395 300 408 303 418 308 c 1
 384 337 362 381 362 430 c 0
 362 518 434 590 522 590 c 0
 610 590 682 518 682 430 c 0
 682 283 588 140 381 140 c 0
 166 140 80 293 80 450 c 0
 80 694 278 872 522 872 c 0
522 490 m 0
 489 490 462 463 462 430 c 0
 462 397 489 370 522 370 c 0
 555 370 582 397 582 430 c 0
 582 463 555 490 522 490 c 0
EndSplineSet
Validated: 1
EndChar

StartChar: uni0E52
Encoding: 3666 3666 83
Width: 1292
VWidth: 0
Flags: W
HStem: 0 160<382.033 937.375> 200 120<572.71 686.872> 480 120<570.893 686.872> 712 160<585.129 688.123 868.017 962.558>
VStem: 118 210<250.901 843.391> 380 170<355.337 564.882 583 670.61> 710 120<343.128 456.872> 724 120<617 675.542> 1002 210<264.514 632.698>
LayerCount: 2
Fore
SplineSet
0 1100 m 1xfe80
 292 1100 325 833 326 700 c 2
 328 450 l 2
 329 270 365 187 410 160 c 1
 922 160 l 1
 980 251 1002 316 1002 430 c 0
 1002 586 987 712 918 712 c 0
 849 712 844 617 844 617 c 1
 724 617 l 1xfd80
 724 617 705 712 630 712 c 0
 575 712 550 629 550 583 c 1
 574 594 601 600 630 600 c 0
 740 600 830 510 830 400 c 0
 830 290 740 200 630 200 c 0
 449 200 380 327 380 550 c 0
 380 734 495 872 630 872 c 0
 716 872 762 815 784 780 c 1
 808 815 853 872 928 872 c 0
 1120 872 1212 674 1212 430 c 0
 1212 294 1173 146 1082 0 c 1
 272 0 l 1
 272 0 118 69 118 420 c 2
 118 700 l 2
 118 776 112 900 0 900 c 1
 0 1100 l 1xfe80
630 480 m 0
 586 480 550 444 550 400 c 0
 550 356 586 320 630 320 c 0
 674 320 710 356 710 400 c 0xfe80
 710 444 674 480 630 480 c 0
EndSplineSet
Validated: 1
EndChar

StartChar: uni0E53
Encoding: 3667 3667 84
Width: 1118
VWidth: 0
Flags: W
HStem: -12 120<314.792 428.872> 0 21G<726 994> 268 120<312.893 428.872> 682 190<334.829 413.951 704.049 783.171>
VStem: 80 212<373.727 610.365> 452 120<131.128 244.872> 474 170<430 592.698> 828 210<212.216 611.108>
LayerCount: 2
Fore
SplineSet
372 872 m 0xbd
 443 872 508 833 559 769 c 1
 610 833 675 872 746 872 c 0
 907 872 1038 674 1038 430 c 0
 1038 294 1022 144 966 0 c 1
 726 0 l 1
 785 163 828 231 828 430 c 0
 828 586 791 682 746 682 c 0
 701 682 644 586 644 430 c 1
 474 430 l 1x7b
 474 586 417 682 372 682 c 0
 327 682 290 586 290 430 c 0
 290 410 291 390 292 371 c 1
 316 382 343 388 372 388 c 0
 482 388 572 298 572 188 c 0
 572 78 482 -12 372 -12 c 0
 164 -12 80 186 80 430 c 0
 80 674 211 872 372 872 c 0xbd
372 268 m 0
 328 268 292 232 292 188 c 0
 292 144 328 108 372 108 c 0
 416 108 452 144 452 188 c 0xbd
 452 232 416 268 372 268 c 0
EndSplineSet
Validated: 1
EndChar

StartChar: uni0E55
Encoding: 3669 3669 85
Width: 1092
VWidth: 0
Flags: W
HStem: 0 160<406.977 689 861.375 972> 510 120<633.128 746.872> 692 180<547.625 632.375 757 819.541> 1000 120<540.988 639.012>
VStem: 80 210<295.978 571.424> 410 120<890.747 989.012> 490 120<372.372 486.872> 650 120<891.157 989.012> 770 120<371.796 486.872>
LayerCount: 2
Fore
SplineSet
590 1120 m 0xfc80
 689 1120 770 1039 770 940 c 0
 770 916 765 893 757 872 c 1
 812 872 l 1
 812 872 878 1100 1092 1100 c 1
 1092 900 l 1
 962 900 959 800 910 742 c 4
 885 712 843 692 777 692 c 6
 492 692 l 1
 369 691 290 592 290 436 c 0
 290 280 369 160 492 160 c 2
 689 160 l 2
 645 160 490 275 490 430 c 0xfb
 490 540 580 630 690 630 c 0
 800 630 890 540 890 430 c 0
 890 355 849 290 789 256 c 1
 837 197 873 160 972 160 c 1
 972 0 l 1
 492 0 l 2
 218 0 80 192 80 436 c 0
 80 656 229 833 426 866 c 1
 416 889 410 914 410 940 c 0
 410 1039 491 1120 590 1120 c 0xfc80
590 1000 m 0
 557 1000 530 973 530 940 c 0xfd
 530 907 557 880 590 880 c 0
 623 880 650 907 650 940 c 0
 650 973 623 1000 590 1000 c 0
690 510 m 0
 646 510 610 474 610 430 c 0
 610 386 646 350 690 350 c 0
 734 350 770 386 770 430 c 0xfa80
 770 474 734 510 690 510 c 0
EndSplineSet
EndChar

StartChar: uni0E56
Encoding: 3670 3670 86
Width: 1032
VWidth: 0
Flags: W
HStem: -12 160<477.738 608.609> 380 120<283.128 396.872> 702 170<413.917 631.893>
VStem: 140 120<242.069 356.872> 420 120<241.784 356.872> 742 210<300.055 572.664>
LayerCount: 2
Back
SplineSet
0 1100 m 5
 180 1100 266 946 300 760 c 5
 333 833 449 872 540 872 c 4
 768 872 952 674 952 430 c 4
 952 186 804 -12 540 -12 c 4
 296 -12 160 132 160 300 c 4
 160 410 250 500 360 500 c 4
 470 500 560 410 560 300 c 4
 560 242 535 190 496 154 c 5
 510 150 525 148 540 148 c 4
 683 148 752 274 752 430 c 4
 752 586 663 712 540 712 c 4
 424 712 347 650 310 560 c 5
 160 560 l 5
 160 676 130 900 0 900 c 5
 0 1100 l 5
360 380 m 4
 316 380 280 344 280 300 c 4
 280 256 316 220 360 220 c 4
 404 220 440 256 440 300 c 4
 440 344 404 380 360 380 c 4
EndSplineSet
Fore
SplineSet
0 1100 m 1
 180 1100 267 976 301 790 c 1
 344 833 426 872 530 872 c 0
 780 872 952 674 952 430 c 0
 952 186 794 -12 520 -12 c 0
 296 -12 140 122 140 300 c 0
 140 410 230 500 340 500 c 0
 450 500 540 410 540 300 c 0
 540 242 515 190 476 154 c 1
 490 150 505 148 520 148 c 0
 643 148 742 274 742 430 c 0
 742 586 673 702 530 702 c 0
 402 702 328 623 300 560 c 1
 150 560 l 1
 150 676 130 900 0 900 c 1
 0 1100 l 1
340 380 m 0
 296 380 260 344 260 300 c 0
 260 256 296 220 340 220 c 0
 384 220 420 256 420 300 c 0
 420 344 384 380 340 380 c 0
EndSplineSet
Validated: 1
EndChar

StartChar: uni0E57
Encoding: 3671 3671 87
Width: 1342
VWidth: 0
Flags: W
HStem: -12 120<313.983 428.872> 268 120<312.893 428.872> 682 190<334.829 413.951 704.049 782.997>
VStem: 80 212<373.727 610.365> 452 120<131.128 244.872> 474 170<430 592.698> 828 190<283.41 615.186> 1052 210<355.891 770.131>
LayerCount: 2
Fore
SplineSet
922 1100 m 1xfb
 1145 1100 1262 845 1262 540 c 0
 1262 188 1015 -12 746 -12 c 1
 746 148 l 1
 791 148 828 274 828 430 c 0
 828 586 791 682 746 682 c 0
 701 682 644 586 644 430 c 1
 474 430 l 1xf7
 474 586 417 682 372 682 c 0
 327 682 290 586 290 430 c 0
 290 410 291 390 292 371 c 1
 316 382 343 388 372 388 c 0
 482 388 572 298 572 188 c 0
 572 78 482 -12 372 -12 c 0
 157 -12 80 186 80 430 c 0
 80 674 211 872 372 872 c 0
 443 872 508 833 559 769 c 1
 610 833 675 872 746 872 c 0
 907 872 1018 674 1018 430 c 0
 1018 378 1013 327 1003 281 c 1
 1033 339 1052 421 1052 540 c 0
 1052 761 1001 900 922 900 c 1
 922 1100 l 1xfb
372 268 m 0
 328 268 292 232 292 188 c 0
 292 144 328 108 372 108 c 0
 416 108 452 144 452 188 c 0xfb
 452 232 416 268 372 268 c 0
EndSplineSet
Validated: 1
EndChar

StartChar: uni0E58
Encoding: 3672 3672 88
Width: 1180
VWidth: 0
Flags: W
HStem: -12 160<680.455 829.264> 209 120<763.36 861.522> 489 120<765.128 879.124> 680 180<398.812 907.541>
VStem: 80 210<294.143 566.205> 622 120<351.244 466.756> 902 160<231.5 466.114>
LayerCount: 2
Fore
SplineSet
1180 1088 m 1
 1180 888 l 1
 1050 888 1047 788 998 730 c 4
 973 700 931 680 865 680 c 4
 734 680 623 680 492 680 c 1
 369 679 290 592 290 436 c 0
 290 251 400 180 400 180 c 1
 460 320 l 1
 600 320 l 1
 600 270 657 148 750 148 c 0
 811 148 842 172 862 219 c 1
 847 210 842 209 822 209 c 0
 702 209 622 294 622 409 c 0
 622 524 712 609 822 609 c 0
 1003 609 1062 461 1062 348 c 0
 1062 115 927 -12 770 -12 c 0
 572 -12 520 120 520 120 c 1
 472 -12 l 1
 199 -12 80 192 80 436 c 0
 80 680 264 860 492 860 c 0
 628 860 764 860 900 860 c 1
 900 860 966 1088 1180 1088 c 1
822 489 m 0
 778 489 742 453 742 409 c 0
 742 365 778 329 822 329 c 0
 866 329 902 365 902 409 c 0
 902 453 866 489 822 489 c 0
EndSplineSet
EndChar

StartChar: uni0E59
Encoding: 3673 3673 89
Width: 1182
VWidth: 0
Flags: W
HStem: -12 120<315.612 430.872> 0 21G<620 810> 268 120<314.893 430.872> 682 190<349.716 465.762 742.393 834.814>
VStem: 80 210<372.809 594.654> 454 120<131.128 244.872> 620 190<0 339.413> 894 160<420 589.066>
LayerCount: 2
Fore
SplineSet
1182 1100 m 1xbf
 1182 900 l 1
 1073 900 1054 756 1054 420 c 1
 894 420 l 1
 894 420 893 682 784 682 c 0
 754 682 737 666 737 620 c 0
 737 544 810 378 810 0 c 5
 620 0 l 5x7f
 620 409 527 682 404 682 c 0
 337 682 290 586 290 430 c 0
 290 410 293 390 294 371 c 1
 318 382 345 388 374 388 c 0
 484 388 574 298 574 188 c 0
 574 78 484 -12 374 -12 c 0
 156 -12 80 186 80 430 c 0
 80 674 193 872 384 872 c 0
 482 872 548 833 601 769 c 1
 659 843 705 872 764 872 c 0
 824 872 853 850 885 827 c 1
 921 929 1009 1100 1182 1100 c 1xbf
374 268 m 0
 330 268 294 232 294 188 c 0
 294 144 330 108 374 108 c 0xbf
 418 108 454 144 454 188 c 0
 454 232 418 268 374 268 c 0
EndSplineSet
Validated: 1
EndChar

StartChar: uni0E5A
Encoding: 3674 3674 90
Width: 790
VWidth: 0
Flags: W
HStem: -12 100<235 345.388> 323 107<205 304.014> 530 65<69.4878 150.512>
VStem: 0 65<445.148 525.512> 155 65<444.29 525.512> 370 160<112.649 401.261> 400 130<509.734 570> 580 130<72.375 570>
LayerCount: 2
Fore
SplineSet
110 595 m 0xfd
 171 595 220 546 220 485 c 0
 220 465 215 446 205 430 c 1
 279 430 385 479 400 570 c 1
 530 570 l 1
 530 108 l 1xfb
 530 108 456 -12 205 -12 c 1
 235 88 l 1
 318 88 370 128 370 128 c 1
 370 278 l 2
 371 323 371 366 395 403 c 1
 395 403 329 323 205 323 c 0
 103 323 0 373 0 485 c 0
 0 546 49 595 110 595 c 0xfd
580 570 m 1
 710 570 l 1
 710 88 l 1
 710 88 642 -12 460 -12 c 1
 520 56 l 1
 551 66 580 88 580 88 c 1
 580 570 l 1
110 530 m 0
 85 530 65 510 65 485 c 0
 65 460 85 440 110 440 c 0
 135 440 155 460 155 485 c 0
 155 510 135 530 110 530 c 0
EndSplineSet
Validated: 1
EndChar

StartChar: uni0E0F.short
Encoding: 63290 63290 91
Width: 690
VWidth: 0
Flags: W
HStem: -242 60<102.437 176.721> -102 60<102.932 177.257> -20 20G<235 335> -12 85<110.339 189.661> 492 120<234.213 389.652>
VStem: 20 85<78.3395 158.487> 40 60<-179.068 -104.932> 90 190<216.095 358.22> 195 85<79.2666 158.588> 235 100<-66.5246 0> 420 190<-82.682 458.65>
LayerCount: 2
Fore
SplineSet
320 612 m 1xd920
 516 612 609 497 610 334 c 1
 610 -170 l 1
 610 -170 575 -208 470 -222 c 1
 380 -152 l 1
 294 -222 l 1
 240 -194 l 1
 215 -219 192 -242 140 -242 c 0
 88 -242 40 -197 40 -142 c 0
 40 -87 85 -42 140 -42 c 0
 172 -42 192 -50 222 -67 c 1
 230 -57 235 -38 235 0 c 1
 335 0 l 1xea60
 335 -51 303 -103 286 -121 c 1
 300 -132 l 1
 380 -60 l 1
 470 -137 l 1
 470 -137 420 -39 420 28 c 2
 420 334 l 2
 420 417 413 492 320 492 c 0
 248 492 215 452 195 431 c 1xe8a0
 300 379 l 1
 300 379 280 355 280 324 c 2xe920
 280 118 l 2
 280 46 222 -12 150 -12 c 0
 78 -12 20 46 20 118 c 0xdca0
 20 168 48 212 90 233 c 1
 90 284 l 2
 90 312 102 355 135 374 c 1
 30 423 l 1
 107 544 190 610 320 612 c 1xd920
150 163 m 0
 125 163 105 143 105 118 c 0
 105 93 125 73 150 73 c 0
 175 73 195 93 195 118 c 0xdca0
 195 143 175 163 150 163 c 0
140 -102 m 0
 118 -102 100 -120 100 -142 c 0xca20
 100 -164 118 -182 140 -182 c 0
 162 -182 180 -164 180 -142 c 0
 180 -120 162 -102 140 -102 c 0
EndSplineSet
Validated: 1
EndChar

StartChar: uni0E0E.short
Encoding: 63291 63291 92
Width: 690
VWidth: 0
Flags: W
HStem: -242 60<142.437 217.295> -102 60<142.726 217.388> -20 20G<270 370> -12 85<110.339 189.661> 492 120<234.213 389.652>
VStem: 20 85<78.3395 158.487> 80 60<-179.068 -104.932> 90 190<216.095 358.22> 195 85<79.2666 158.588> 270 100<-58.2903 0> 420 190<-121.978 458.65>
LayerCount: 2
Fore
SplineSet
320 612 m 1xd920
 516 612 609 497 610 334 c 1
 610 -170 l 1
 610 -170 545 -208 440 -222 c 1
 440 -222 373 -195 314 -160 c 1
 289 -208 245 -242 180 -242 c 0
 128 -242 80 -197 80 -142 c 0
 80 -87 124 -42 180 -42 c 0
 213 -42 228 -45 262 -59 c 1
 266 -44 270 -20 270 0 c 1
 370 0 l 1xea60
 370 -28 361 -57 349 -86 c 1
 396 -113 440 -122 440 -122 c 1
 440 -122 420 -92 420 -12 c 2
 420 334 l 2
 420 417 413 492 320 492 c 0
 248 492 215 452 195 431 c 1xd8a0
 300 379 l 1
 300 379 280 355 280 324 c 2xd920
 280 118 l 2
 280 46 222 -12 150 -12 c 0
 78 -12 20 46 20 118 c 0xdca0
 20 168 48 212 90 233 c 1
 90 284 l 2
 90 312 102 355 135 374 c 1
 30 423 l 1
 107 544 190 610 320 612 c 1xd920
150 163 m 0
 125 163 105 143 105 118 c 0
 105 93 125 73 150 73 c 0
 175 73 195 93 195 118 c 0xdca0
 195 143 175 163 150 163 c 0
180 -102 m 0
 158 -102 140 -120 140 -142 c 0xca20
 140 -164 158 -182 180 -182 c 0
 202 -182 220 -164 220 -142 c 0
 220 -120 202 -102 180 -102 c 0
EndSplineSet
Validated: 1
EndChar

StartChar: uni0E48.nikhahit
Encoding: 63251 63251 93
Width: 0
VWidth: 0
Flags: W
HStem: 670 85<-232.683 -137.317> 875 85<-232.683 -137.317> 1000 250<-255 -105>
VStem: -330 85<767.317 862.683> -255 150<1000 1250> -125 85<767.317 862.683>
LayerCount: 2
Fore
SplineSet
-255 1250 m 1xe8
 -105 1250 l 1
 -105 1000 l 1
 -255 1000 l 1
 -255 1250 l 1xe8
EndSplineSet
Refer: 39 3661 N 1 0 0 1 100 0 2
Validated: 1
Position2: "Tone-Nikhahit" dx=-250 dy=0 dh=0 dv=0
LCarets2: 1 0 
Ligature2: "'liga' Tone-Nikhahit Ligature" uni0E48 uni0E4D
EndChar

StartChar: uni0E49.nikhahit
Encoding: 63252 63252 94
Width: 0
VWidth: 0
Flags: W
HStem: 670 85<-232.683 -137.317> 875 85<-232.683 -137.317> 988 152<-307.455 -133.219> 988 100<-219 -150.765> 1220 60<-317.068 -242.932>
VStem: -380 60<1142.96 1217.07> -330 85<767.317 862.683> -240 60<1142.79 1217.07> -125 85<767.317 862.683> -70 150<1176.06 1258>
LayerCount: 2
Fore
SplineSet
-280 1280 m 0xed
 -225 1280 -180 1235 -180 1180 c 0
 -180 1133 -200 1106 -219 1088 c 1xdd
 -143 1088 -70 1186 -70 1258 c 1
 80 1258 l 1
 80 1163 -24 988 -245 988 c 0xeb40
 -285 988 -338 997 -380 1014 c 1
 -355 1028 -326 1056 -308 1084 c 1
 -349 1096 -380 1134 -380 1180 c 0
 -380 1235 -335 1280 -280 1280 c 0xed
-280 1220 m 0
 -302 1220 -320 1202 -320 1180 c 0
 -320 1158 -302 1140 -280 1140 c 0xed
 -258 1140 -240 1158 -240 1180 c 0
 -240 1202 -258 1220 -280 1220 c 0
EndSplineSet
Refer: 39 3661 N 1 0 0 1 100 0 2
Validated: 1
Position2: "Tone-Nikhahit" dx=-250 dy=0 dh=0 dv=0
LCarets2: 1 0 
Ligature2: "'liga' Tone-Nikhahit Ligature" uni0E49 uni0E4D
EndChar

StartChar: uni0E4B.nikhahit
Encoding: 63254 63254 95
Width: 0
VWidth: 0
Flags: W
HStem: 670 85<-232.683 -137.317> 875 85<-232.683 -137.317> 1000 250<-250 -100> 1085 80<-335 -250 -100 -15>
VStem: -330 85<767.317 862.683> -250 150<1000 1085 1165 1250> -125 85<767.317 862.683>
LayerCount: 2
Fore
SplineSet
-250 1250 m 1xe4
 -100 1250 l 1xe4
 -100 1165 l 1
 -15 1165 l 1
 -15 1085 l 1
 -100 1085 l 1xd4
 -100 1000 l 1
 -250 1000 l 1xe4
 -250 1085 l 1
 -335 1085 l 1
 -335 1165 l 1
 -250 1165 l 1xd4
 -250 1250 l 1xe4
EndSplineSet
Refer: 39 3661 N 1 0 0 1 100 0 2
Validated: 1
Position2: "Tone-Nikhahit" dx=-250 dy=0 dh=0 dv=0
LCarets2: 1 0 
Ligature2: "'liga' Tone-Nikhahit Ligature" uni0E4B uni0E4D
EndChar

StartChar: uni0E4A.nikhahit
Encoding: 63253 63253 96
Width: 0
VWidth: 0
Flags: W
HStem: 670 85<-232.683 -137.317> 875 85<-232.683 -137.317> 988 50<-328.588 -254.925> 1118 50<-302.457 -255.719>
VStem: -400 97<1166.14 1212.06> -400 68<1042.15 1115.56> -330 85<767.317 862.683> -252 50<1040.81 1114.76> -150 99<1097.85 1213.91> -125 85<767.317 862.683> -15 135<1124.27 1260>
LayerCount: 2
Fore
SplineSet
-290 1267 m 1xf520
 -230 1223 l 1
 -170 1267 l 1
 -93 1267 -51 1192 -51 1131 c 0
 -51 1119 -53 1107 -56 1097 c 1
 -27 1135 -15 1194 -15 1260 c 1
 120 1260 l 1
 120 1039 6 988 -197 988 c 1
 -166 1032 -150 1077 -150 1121 c 0
 -150 1153 -158 1184 -175 1215 c 1
 -230 1173 l 1
 -290 1215 l 1
 -290 1215 -303 1196 -303 1176 c 0xf8a0
 -303 1173 -303 1169 -302 1166 c 1
 -302 1166 -297 1168 -292 1168 c 0
 -241 1168 -202 1126 -202 1078 c 0
 -202 1028 -242 988 -292 988 c 0
 -363 988 -400 1039 -400 1118 c 1
 -400 1119 -400 1119 -400 1120 c 0
 -400 1191 -353 1267 -290 1267 c 1xf520
-292 1118 m 0
 -314 1118 -332 1100 -332 1078 c 0
 -332 1056 -314 1038 -292 1038 c 0
 -269 1038 -252 1056 -252 1078 c 0xf520
 -252 1100 -269 1118 -292 1118 c 0
EndSplineSet
Refer: 39 3661 N 1 0 0 1 100 0 2
Validated: 1
Position2: "Tone-Nikhahit" dx=-250 dy=0 dh=0 dv=0
LCarets2: 1 0 
Ligature2: "'liga' Tone-Nikhahit Ligature" uni0E4A uni0E4D
EndChar

StartChar: uni0E04
Encoding: 3588 3588 97
Width: 730
Flags: W
HStem: 0 21G<90 262.222 470 650> 210 65<294.361 375.512> 365 65<294.818 375.456> 492 120<250.85 422.696>
VStem: 50 140<241.964 432.415> 90 170<0 211.112> 380 65<279.488 360.512> 470 180<0 439.837>
LayerCount: 2
Fore
SplineSet
345 612 m 0xfb
 541 612 649 497 650 334 c 1
 650 0 l 1
 470 0 l 1
 470 334 l 2
 470 417 438 492 345 492 c 0
 252 492 190 442 190 334 c 0xfb
 190 285 196 254 198 240 c 1
 218 367 265 430 335 430 c 0
 402 430 445 381 445 320 c 0
 445 259 396 210 335 210 c 0
 303 210 285 225 285 225 c 1
 266 208 260 0 260 0 c 1
 90 0 l 1xf7
 90 188 50 200 50 334 c 0
 51 497 149 612 345 612 c 0xfb
335 365 m 0
 310 365 290 345 290 320 c 0
 290 295 310 275 335 275 c 0
 360 275 380 295 380 320 c 0
 380 345 360 365 335 365 c 0
EndSplineSet
Validated: 1
EndChar
